<svg width="140" height="61" viewBox="0 0 140 61" fill="none" xmlns="http://www.w3.org/2000/svg">
<path d="M96.2009 49.3593V44.7794L97.6996 44.4388C98.0402 44.4021 98.1136 44.2868 98.1136 43.9148V29.2633C98.1136 28.9646 98.0402 28.8493 97.6996 28.7392L96.2009 28.3672V23.8135H107.619V28.3986L106.115 28.7759C105.78 28.886 105.701 29.0013 105.701 29.2999V43.9357C105.701 44.2711 105.78 44.3497 106.079 44.4598L107.619 44.8737V49.3803L96.2009 49.3593Z" fill="black"/>
<path d="M75.413 49.3592L69.0462 29.2055C69.024 29.1183 68.9761 29.0398 68.9089 28.98C68.8417 28.9203 68.7581 28.882 68.6689 28.8701L66.6829 28.5348V23.8867H79.5318V28.5348L78.0331 28.9854C77.8881 29.0045 77.7551 29.0756 77.6587 29.1855C77.5623 29.2954 77.5091 29.4366 77.5091 29.5828C77.5347 30.0025 77.6103 30.4177 77.7344 30.8195L80.4698 41.609H80.6532L83.3781 30.8352C83.498 30.4324 83.5736 30.0177 83.6034 29.5985C83.5947 29.449 83.5338 29.3074 83.4313 29.1982C83.3288 29.089 83.1913 29.0193 83.0427 29.0011L81.5807 28.5505V23.9024H94.0942V28.5138L92.0348 28.9225C91.9418 28.9413 91.8563 28.9871 91.7892 29.0542C91.7221 29.1213 91.6763 29.2068 91.6575 29.2998L85.4794 49.3749L75.413 49.3592Z" fill="black"/>
<path d="M110.171 47.52C110.196 45.1961 110.36 42.8757 110.664 40.5715H116.81L117.413 43.5008C118.2 43.7653 119.024 43.905 119.855 43.9148C121.28 43.9148 122.218 43.2755 122.218 42.2589C122.218 40.9855 120.604 40.4982 118.686 39.9322C114.856 38.7689 110.276 37.265 110.276 31.3279C110.276 25.3908 114.18 23.4414 120.08 23.4414C123.838 23.4414 126.279 24.4161 128.905 25.658C128.942 27.8558 128.806 30.053 128.496 32.2292H122.344L122.045 29.6405C121.45 29.39 120.81 29.2617 120.164 29.2632C118.776 29.2632 117.874 29.5986 117.874 30.6886C117.874 31.9672 119.603 32.7218 121.479 33.3558C125.148 34.5558 129.822 36.2117 129.822 41.6615C129.822 47.1113 126.363 49.7733 119.829 49.7733C116.482 49.7524 113.182 48.9825 110.171 47.52V47.52Z" fill="black"/>
<path d="M25.0236 23.8868V28.5244L26.8629 29.0484C27.6279 29.2527 27.6175 29.6458 27.2192 30.8353L23.6559 41.6353H23.3991L20.648 30.8353C20.3389 29.6824 20.3441 29.2003 21.0044 29.0484L22.959 28.5244V23.8868H10V28.5244L12.0961 28.9331C12.3004 28.9855 12.3476 29.0851 12.4 29.2894L18.6882 49.3593H27.7275L30.8716 38.6955L34.0157 49.3436H43.0812L49.3694 29.2737C49.3935 29.186 49.4399 29.106 49.5043 29.0417C49.5686 28.9774 49.6485 28.931 49.7362 28.9069L51.7642 28.5086V23.8711H38.8157V28.5086L40.7703 29.0327C41.4358 29.1846 41.4358 29.6667 41.1266 30.8196L38.3755 41.6196H38.124L34.5397 30.8353C34.1467 29.6458 34.131 29.2632 34.8961 29.0484L36.7354 28.5244V23.8868H25.0236Z" fill="black"/>
<path d="M57.6908 37.8517H61.0812V36.8875C61.0812 35.8395 60.4838 35.284 59.4043 35.284C58.3249 35.284 57.6908 35.8447 57.6908 36.8875V37.8517ZM50.4646 42.2482V37.3329C50.4646 32.8264 53.965 29.8447 59.2576 29.8447C64.5502 29.8447 68.0454 32.8264 68.0454 37.3329V41.5251H57.6908V42.5312C57.6908 43.6107 58.9589 44.3181 60.3109 44.3181C61.6629 44.3181 62.9939 43.7207 63.2139 42.7932H68.0192V46.4613C66.0856 48.7356 63.1406 49.7417 60.0856 49.7417C54.3423 49.7364 50.4646 46.7548 50.4646 42.2482V42.2482Z" fill="black"/>
<path d="M102.075 21.5391C104.303 21.5391 106.11 19.7326 106.11 17.5042C106.11 15.2757 104.303 13.4692 102.075 13.4692C99.8465 13.4692 98.04 15.2757 98.04 17.5042C98.04 19.7326 99.8465 21.5391 102.075 21.5391Z" fill="black"/>
</svg>
