<svg fill="none" height="577" viewBox="0 0 688 577" width="688" xmlns="http://www.w3.org/2000/svg"><path d="m593.329 360.875c5.148-11.622 22.606-6.941 21.257 5.699l-1.697 15.896c-1.026 9.613 9.829 15.883 17.636 10.188l12.911-9.418c10.265-7.489 23.045 5.298 15.56 15.569l-9.413 12.918c-5.692 7.811.576 18.673 10.182 17.646l15.888-1.698c12.633-1.35 17.31 16.118 5.695 21.269l-14.607 6.478c-8.833 3.917-8.833 16.459 0 20.376l14.608 6.477c11.614 5.151 6.937 22.619-5.696 21.269l-15.888-1.698c-9.606-1.026-15.874 9.835-10.182 17.646l9.413 12.918c7.485 10.272-5.295 23.059-15.56 15.57l-12.911-9.419c-7.807-5.695-18.662.576-17.636 10.188l1.697 15.897c1.349 12.639-16.109 17.32-21.257 5.698l-6.474-14.615c-3.915-8.838-16.449-8.838-20.364 0l-6.474 14.615c-5.148 11.622-22.606 6.941-21.257-5.698l1.697-15.897c1.026-9.612-9.829-15.883-17.636-10.188l-12.91 9.419c-10.266 7.489-23.046-5.298-15.561-15.57l9.413-12.918c5.692-7.811-.575-18.672-10.182-17.646l-15.888 1.698c-12.632 1.35-17.31-16.118-5.695-21.269l14.607-6.477c8.833-3.917 8.833-16.459 0-20.376l-14.607-6.478c-11.615-5.151-6.937-22.619 5.695-21.269l15.888 1.698c9.607 1.027 15.874-9.835 10.182-17.646l-9.413-12.918c-7.485-10.271 5.295-23.058 15.561-15.569l12.91 9.418c7.807 5.695 18.662-.575 17.636-10.188l-1.697-15.896c-1.349-12.64 16.109-17.321 21.257-5.699l6.474 14.616c3.915 8.837 16.449 8.837 20.364 0z" fill="#b6e8f8"/><ellipse cx="577.336" cy="466.273" fill="#b1f4b4" rx="47.0489" ry="47.0755"/><path d="m267.752 13.9232c10.77-24.3132 47.293-14.521122 44.47 11.9227l-3.55 33.2568c-2.146 20.1096 20.564 33.2288 36.896 21.3139l27.01-19.7045c21.477-15.6679 48.214 11.0844 32.555 32.5732l-19.694 27.0247c-11.908 16.342 1.204 39.065 21.302 36.917l33.238-3.552c26.429-2.824 36.216 33.72 11.916 44.496l-30.56 13.552c-18.479 8.195-18.479 34.434 0 42.628l30.56 13.553c24.3 10.775 14.513 47.32-11.916 44.495l-33.238-3.552c-20.098-2.148-33.21 20.576-21.302 36.917l19.694 27.025c15.659 21.489-11.078 48.241-32.555 32.573l-27.01-19.704c-16.332-11.915-39.042 1.204-36.896 21.314l3.55 33.257c2.823 26.444-33.7 36.235-44.47 11.922l-13.545-30.577c-8.19-18.489-34.414-18.489-42.604 0l-13.544 30.577c-10.77 24.314-47.293 14.521-44.471-11.922l3.55-33.257c2.147-20.11-20.564-33.229-36.896-21.314l-27.0096 19.704c-21.4767 15.668-48.2137-11.084-32.5547-32.573l19.6934-27.025c11.9081-16.341-1.2038-39.065-21.3019-36.917l-33.238 3.552c-26.428794 2.825-36.2151-33.72-11.9157-44.496l30.5598-13.552c18.4789-8.194 18.4788-34.433 0-42.628l-30.56-13.552c-24.2994-10.776-14.512883-47.32 11.916-44.496l33.2379 3.552c20.0982 2.148 33.21-20.575 21.3019-36.917l-19.6934-27.0248c-15.659-21.4888 11.0781-48.2409 32.5548-32.5731l27.0095 19.7046c16.333 11.9148 39.043-1.2045 36.896-21.3141l-3.55-33.2568c-2.822-26.443777 33.701-36.2357 44.471-11.9225l13.544 30.5772c8.19 18.4893 34.414 18.4893 42.604 0z" fill="#fff"/><ellipse cx="235.188" cy="235.321" fill="#b1f4b4" rx="98.1856" ry="98.2412"/></svg>