<svg fill="none" height="64" viewBox="0 0 64 64" width="64" xmlns="http://www.w3.org/2000/svg"><path d="m18.5374 27.918v.5h.5 5.2678.5v-.5-10.4736l14.5685 10.8743.133.0993h.1661.1749.5v-.5-10.4736l14.5685 10.8743.1151.0859v26.9896h-35.9939-.5v.1058h-10.0374v-46.5c0-.27614.22386-.5.5-.5h9.0374c.2762 0 .5.22386.5.5z" fill="#b1f4b4" stroke="#08274c"/><g fill="#08274c"><path d="m13 38.9316c0-.5145.4067-.9316.9083-.9316h8.1834c.5016 0 .9083.4171.9083.9316v3.1368c0 .5145-.4067.9316-.9083.9316h-8.1834c-.5016 0-.9083-.4171-.9083-.9316z"/><path d="m27 38.9316c0-.5145.4067-.9316.9083-.9316h8.1834c.5016 0 .9083.4171.9083.9316v3.1368c0 .5145-.4067.9316-.9083.9316h-8.1834c-.5016 0-.9083-.4171-.9083-.9316z"/><path d="m41 38.9316c0-.5145.4067-.9316.9083-.9316h8.1834c.5016 0 .9083.4171.9083.9316v3.1368c0 .5145-.4067.9316-.9083.9316h-8.1834c-.5016 0-.9083-.4171-.9083-.9316z"/></g></svg>