<svg fill="none" height="64" viewBox="0 0 64 64" width="64" xmlns="http://www.w3.org/2000/svg"><path d="m36.0479 9.63652c.8787-1.98252 3.8585-1.18408 3.6282.97218l-.3658 3.4251c-.2672 2.5023 2.5603 4.1348 4.5938 2.6521l2.7832-2.0293c1.7522-1.2776 3.9337.9038 2.6561 2.6561l-2.0294 2.7832c-1.4826 2.0335.1499 4.861 2.6522 4.5938l3.4251-.3658c2.1562-.2303 2.9547 2.7495.9722 3.6282l-3.1491 1.3957c-2.3007 1.0197-2.3007 4.2847 0 5.3044l3.1491 1.3957c1.9825.8787 1.1841 3.8585-.9722 3.6282l-3.4251-.3658c-2.5023-.2672-4.1348 2.5603-2.6521 4.5938l2.0293 2.7832c1.2775 1.7522-.9038 3.9337-2.6561 2.6561l-2.7832-2.0294c-2.0335-1.4826-4.861.1499-4.5938 2.6522l.3658 3.4251c.2303 2.1562-2.7495 2.9547-3.6282.9722l-1.3957-3.1491c-1.0197-2.3007-4.2847-2.3007-5.3044 0l-1.3957 3.1491c-.8787 1.9825-3.8585 1.1841-3.6282-.9722l.3658-3.4251c.2672-2.5023-2.5603-4.1348-4.5938-2.6521l-2.7832 2.0293c-1.7522 1.2776-3.9337-.9038-2.6561-2.6561l2.0293-2.7832c1.4827-2.0335-.1498-4.861-2.6521-4.5938l-3.4251.3658c-2.15624.2303-2.9547-2.7495-.97216-3.6282l3.14906-1.3957c2.3007-1.0197 2.3007-4.2847 0-5.3044l-3.14908-1.3957c-1.98252-.8787-1.18408-3.8585.97218-3.6282l3.4251.3658c2.5023.2672 4.1348-2.5603 2.6521-4.5938l-2.0293-2.7832c-1.2776-1.7522.9038-3.9337 2.6561-2.6561l2.7832 2.0293c2.0335 1.4827 4.861-.1498 4.5938-2.6522l-.3658-3.425c-.2303-2.15624 2.7495-2.9547 3.6282-.97217l1.3957 3.14907c1.0197 2.3007 4.2847 2.3007 5.3044 0z" fill="#b1f4b4" stroke="#08274c"/><circle cx="32.1424" cy="32.1438" fill="#08274c" r="10.1429"/></svg>