<svg width="48" height="48" viewBox="0 0 48 48" fill="none" xmlns="http://www.w3.org/2000/svg">
<circle cx="24" cy="24" r="24" fill="#08274C"/>
<path d="M31.272 29.288V31.976H19.08V29.288L24.744 24.104C25.64 23.288 26.264 22.6 26.616 22.04C26.968 21.464 27.144 20.848 27.144 20.192C27.144 19.344 26.896 18.68 26.4 18.2C25.904 17.704 25.232 17.456 24.384 17.456C23.248 17.456 21.88 17.936 20.28 18.896L19.032 16.376C20.04 15.816 21.008 15.4 21.936 15.128C22.88 14.856 23.84 14.72 24.816 14.72C26.704 14.72 28.176 15.208 29.232 16.184C30.288 17.144 30.816 18.488 30.816 20.216C30.816 21.224 30.6 22.128 30.168 22.928C29.752 23.728 29.04 24.592 28.032 25.52L23.88 29.288H31.272Z" fill="white"/>
</svg>
