<svg width="48" height="48" viewBox="0 0 48 48" fill="none" xmlns="http://www.w3.org/2000/svg">
<circle cx="24" cy="24" r="24" fill="#08274C"/>
<path d="M27.96 23.288C28.92 23.544 29.672 24.032 30.216 24.752C30.76 25.456 31.032 26.32 31.032 27.344C31.032 28.32 30.768 29.176 30.24 29.912C29.728 30.648 28.992 31.224 28.032 31.64C27.072 32.04 25.96 32.24 24.696 32.24C22.744 32.24 20.744 31.728 18.696 30.704L19.824 28.136C20.592 28.568 21.368 28.904 22.152 29.144C22.936 29.384 23.656 29.504 24.312 29.504C25.24 29.504 25.976 29.28 26.52 28.832C27.08 28.384 27.36 27.792 27.36 27.056C27.36 26.256 27.016 25.648 26.328 25.232C25.656 24.816 24.656 24.608 23.328 24.608H21.936V22.208H23.256C24.44 22.208 25.336 22 25.944 21.584C26.568 21.152 26.88 20.528 26.88 19.712C26.88 18.992 26.648 18.44 26.184 18.056C25.736 17.656 25.088 17.456 24.24 17.456C22.992 17.456 21.656 17.928 20.232 18.872L18.96 16.376C20.912 15.272 22.84 14.72 24.744 14.72C25.912 14.72 26.928 14.912 27.792 15.296C28.672 15.68 29.352 16.232 29.832 16.952C30.312 17.656 30.552 18.48 30.552 19.424C30.552 20.32 30.328 21.096 29.88 21.752C29.448 22.408 28.808 22.92 27.96 23.288Z" fill="white"/>
</svg>
