<svg width="48" height="48" viewBox="0 0 48 48" fill="none" xmlns="http://www.w3.org/2000/svg">
<circle cx="24" cy="24" r="24" fill="#08274C"/>
<path d="M25.776 20.912C27.472 20.912 28.816 21.408 29.808 22.4C30.816 23.392 31.32 24.736 31.32 26.432C31.32 27.6 31.056 28.624 30.528 29.504C30 30.384 29.24 31.064 28.248 31.544C27.272 32.008 26.128 32.24 24.816 32.24C23.824 32.24 22.808 32.104 21.768 31.832C20.744 31.544 19.752 31.136 18.792 30.608L19.92 28.088C20.816 28.584 21.616 28.944 22.32 29.168C23.024 29.392 23.688 29.504 24.312 29.504C25.352 29.504 26.176 29.232 26.784 28.688C27.408 28.128 27.72 27.376 27.72 26.432C27.72 25.552 27.448 24.848 26.904 24.32C26.36 23.792 25.624 23.528 24.696 23.528C24.168 23.528 23.672 23.632 23.208 23.84C22.76 24.032 22.408 24.296 22.152 24.632L19.92 24.08V14.96H29.952V17.648H23.208V21.44C23.928 21.088 24.784 20.912 25.776 20.912Z" fill="white"/>
</svg>
