<svg fill="none" height="28" viewBox="0 0 28 28" width="28" xmlns="http://www.w3.org/2000/svg"><path d="m23.4 8.70142c-.6805.29243-1.4069.48738-2.1701.576.7816-.45194 1.3793-1.16087 1.6552-2.01157-.7265.41649-1.5357.71778-2.4.88615-.6897-.70892-1.6644-1.152-2.7495-1.152-2.0873 0-3.7701 1.63052-3.7701 3.6332 0 .2836.0368.5583.1012.833-3.1357-.1506-5.91268-1.59506-7.77934-3.80158-.32184.54055-.51495 1.16086-.51495 1.82547 0 1.25831.66207 2.37491 1.68276 3.03061-.61609-.0177-1.2046-.1861-1.71034-.4519v.0443c0 1.7635 1.29655 3.2345 3.02529 3.5623-.31265.0798-.65288.1241-.99311.1241-.23908 0-.47816-.0266-.70804-.062.47816 1.4444 1.87586 2.4989 3.52183 2.5255-1.28735.9748-2.91494 1.5596-4.68965 1.5596-.30345 0-.6069-.0177-.90115-.0531 1.68276 1.0279 3.65977 1.6305 5.7931 1.6305 6.9425 0 10.731-5.5385 10.731-10.3414 0-.1595 0-.3102-.0092-.4697.7357-.5139 1.3794-1.16084 1.8851-1.88748z" fill="#08274c"/></svg>