<svg viewBox="0 0 240 56" fill="none" xmlns="http://www.w3.org/2000/svg">
<path d="M28.0396 56C43.5254 56 56.0792 43.464 56.0792 28C56.0792 12.536 43.5254 0 28.0396 0C12.5537 0 0 12.536 0 28C0 43.464 12.5537 56 28.0396 56Z" fill="white"/>
<path d="M19.0734 14.4588H29.6223C31.5231 14.4054 33.4198 14.6637 35.237 15.2234C36.5437 15.6347 37.7454 16.3245 38.7589 17.2452C39.6093 18.0519 40.2364 19.0645 40.5795 20.1846C40.9364 21.3168 41.1144 22.4976 41.1069 23.6846C41.1142 24.9439 40.9365 26.1976 40.5795 27.4054C40.2419 28.5823 39.6162 29.6566 38.7589 30.5316C37.7952 31.4812 36.6332 32.2065 35.3561 32.6554C33.5825 33.2281 31.7237 33.4925 29.8605 33.437H25.2155V44.0559H19.1414L19.0734 14.4588ZM29.5882 28.3059C30.4897 28.3313 31.39 28.2224 32.2595 27.983C32.8874 27.8063 33.4684 27.493 33.9609 27.0656C34.3775 26.6827 34.6731 26.1866 34.8116 25.6384C34.9582 25.0377 35.0325 24.4218 35.0328 23.8035C35.0436 23.1879 34.9574 22.5744 34.7775 21.9855C34.6293 21.4663 34.3268 21.0041 33.9099 20.6602C33.4105 20.2619 32.8297 19.9777 32.2085 19.8277C31.3338 19.6194 30.4363 19.5224 29.5372 19.5389H25.1305V28.3059H29.5882Z" fill="#08274C"/>
<path d="M89.1038 56C104.59 56 117.143 43.464 117.143 28C117.143 12.536 104.59 0 89.1038 0C73.618 0 61.0642 12.536 61.0642 28C61.0642 43.464 73.618 56 89.1038 56Z" fill="white"/>
<path d="M80.1376 14.4589H90.6183C92.5606 14.4077 94.498 14.6775 96.3522 15.2574C97.6739 15.6884 98.8829 16.4081 99.8912 17.3642C100.709 18.1772 101.322 19.1731 101.678 20.2695C101.996 21.2814 102.163 22.3351 102.171 23.3958C102.229 25.0542 101.872 26.7007 101.133 28.187C100.342 29.5831 99.1595 30.7172 97.7303 31.4492L103.668 44.056H97.0328L92.0646 32.9612H86.2627V44.056H80.1716L80.1376 14.4589ZM91.0267 27.7792C91.8387 27.8044 92.6494 27.6954 93.4257 27.4564C93.9937 27.2951 94.5135 26.9976 94.94 26.5899C95.3132 26.2207 95.578 25.7565 95.7056 25.2477C95.8437 24.6919 95.9123 24.1212 95.9099 23.5487C95.9182 23.0347 95.8376 22.5231 95.6716 22.0365C95.4964 21.5488 95.2043 21.1114 94.8209 20.7622C94.3269 20.3447 93.7455 20.0429 93.1195 19.8788C92.2416 19.6545 91.3371 19.5516 90.4312 19.573H86.1776V27.8132L91.0267 27.7792Z" fill="#08274C"/>
<path d="M150.169 56C165.655 56 178.209 43.464 178.209 28C178.209 12.536 165.655 0 150.169 0C134.683 0 122.129 12.536 122.129 28C122.129 43.464 134.683 56 150.169 56Z" fill="white"/>
<path d="M147.906 19.7939H139.007V14.459H163.031V19.7939H154.133V44.0561H147.906V19.7939Z" fill="#08274C"/>
<path d="M211.233 56C226.719 56 239.273 43.464 239.273 28C239.273 12.536 226.719 0 211.233 0C195.747 0 183.194 12.536 183.194 28C183.194 43.464 195.747 56 211.233 56Z" fill="white"/>
<path d="M202.267 14.4587H212.731C214.673 14.4047 216.611 14.6745 218.464 15.2572C219.791 15.6885 221.005 16.408 222.02 17.364C222.815 18.1807 223.398 19.1777 223.722 20.2694C224.529 22.8832 224.342 25.7028 223.194 28.1868C222.379 29.5933 221.165 30.7281 219.706 31.449L225.712 43.9879H219.043L214.075 32.8932H208.273V44.0558H202.182L202.267 14.4587ZM213.173 27.7791C213.985 27.8018 214.795 27.6928 215.572 27.4562C216.138 27.2906 216.657 26.9937 217.086 26.5897C217.459 26.2205 217.724 25.7564 217.852 25.2475C217.99 24.6918 218.058 24.1211 218.056 23.5485C218.077 23.0128 218.003 22.4777 217.835 21.9684C217.666 21.4775 217.373 21.0385 216.984 20.6941C216.493 20.2726 215.91 19.9702 215.283 19.8106C214.411 19.5862 213.512 19.4833 212.611 19.5048H208.341V27.7451L213.173 27.7791Z" fill="#08274C"/>
</svg>
