<svg viewBox="0 0 140 34" fill="none" xmlns="http://www.w3.org/2000/svg">
<path d="M32.9983 16.5796C32.9983 25.7362 25.6214 33.1592 16.5215 33.1592C7.42169 33.1592 0.0448151 25.7362 0.0448151 16.5796C0.0448151 7.42294 7.42169 0 16.5215 0C25.6214 0 32.9983 7.42294 32.9983 16.5796Z" fill="#08274C"/>
<path d="M11.0474 9.0349H16.979C18.2506 9.0349 19.2974 9.18314 20.1193 9.47963C20.9567 9.7605 21.6158 10.1428 22.0965 10.6265C22.5927 11.0947 22.9339 11.6486 23.12 12.2884C23.3216 12.9126 23.4224 13.568 23.4224 14.2545C23.4224 14.988 23.3216 15.6901 23.12 16.3611C22.9339 17.0321 22.5927 17.6251 22.0965 18.14C21.6158 18.6394 20.9644 19.0373 20.1425 19.3338C19.3361 19.6302 18.3126 19.7785 17.072 19.7785H14.4668V25.7471H11.0474V9.0349ZM16.9557 16.8761C17.5605 16.8761 18.0568 16.8137 18.4445 16.6888C18.8477 16.564 19.1656 16.3923 19.3982 16.1739C19.6308 15.9554 19.7859 15.6901 19.8634 15.3781C19.9564 15.0504 20.003 14.6993 20.003 14.3248C20.003 13.9347 19.9564 13.5914 19.8634 13.2949C19.7704 12.9984 19.6075 12.7487 19.3749 12.5459C19.1423 12.343 18.8244 12.187 18.4212 12.0777C18.0335 11.9685 17.5373 11.9139 16.9325 11.9139H14.4668V16.8761H16.9557Z" fill="white"/>
<path d="M68.6655 16.5796C68.6655 25.7362 61.2886 33.1592 52.1888 33.1592C43.0889 33.1592 35.7121 25.7362 35.7121 16.5796C35.7121 7.42294 43.0889 0 52.1888 0C61.2886 0 68.6655 7.42294 68.6655 16.5796Z" fill="#08274C"/>
<path d="M46.7146 9.0349H52.5997C53.9024 9.0349 54.9724 9.19095 55.8098 9.50303C56.6627 9.79951 57.3295 10.1974 57.8103 10.6968C58.291 11.1805 58.6244 11.7266 58.8105 12.3352C58.9966 12.9282 59.0896 13.5133 59.0896 14.0907C59.0896 15.1674 58.8958 16.0725 58.5081 16.8059C58.1204 17.5393 57.4691 18.1556 56.5541 18.655L59.927 25.7471H56.182L53.3906 19.4742H50.134V25.7471H46.7146V9.0349ZM52.8323 16.5718C53.3751 16.5718 53.8248 16.5172 54.1815 16.4079C54.5382 16.2831 54.8173 16.1193 55.0189 15.9164C55.236 15.6979 55.3833 15.4405 55.4609 15.144C55.5384 14.8475 55.5772 14.5198 55.5772 14.1609C55.5772 13.8644 55.5307 13.5836 55.4376 13.3183C55.3446 13.0374 55.1817 12.7955 54.9491 12.5927C54.732 12.3742 54.4219 12.2104 54.0187 12.1012C53.631 11.9763 53.1347 11.9139 52.53 11.9139H50.134V16.5718H52.8323Z" fill="white"/>
<path d="M104.333 16.5796C104.333 25.7362 96.9559 33.1592 87.856 33.1592C78.7562 33.1592 71.3793 25.7362 71.3793 16.5796C71.3793 7.42294 78.7562 0 87.856 0C96.9559 0 104.333 7.42294 104.333 16.5796Z" fill="#08274C"/>
<path d="M86.1502 12.0543H81.149V9.0349H94.6406V12.0543H89.6394V25.7471H86.1502V12.0543Z" fill="white"/>
<path d="M140 16.5796C140 25.7362 132.623 33.1592 123.523 33.1592C114.423 33.1592 107.047 25.7362 107.047 16.5796C107.047 7.42294 114.423 0 123.523 0C132.623 0 140 7.42294 140 16.5796Z" fill="#08274C"/>
<path d="M118.049 9.0349H123.934C125.237 9.0349 126.307 9.19095 127.144 9.50303C127.997 9.79951 128.664 10.1974 129.145 10.6968C129.625 11.1805 129.959 11.7266 130.145 12.3352C130.331 12.9282 130.424 13.5133 130.424 14.0907C130.424 15.1674 130.23 16.0725 129.843 16.8059C129.455 17.5393 128.804 18.1556 127.889 18.655L131.262 25.7471H127.516L124.725 19.4742H121.469V25.7471H118.049V9.0349ZM124.167 16.5718C124.71 16.5718 125.159 16.5172 125.516 16.4079C125.873 16.2831 126.152 16.1193 126.353 15.9164C126.57 15.6979 126.718 15.4405 126.795 15.144C126.873 14.8475 126.912 14.5198 126.912 14.1609C126.912 13.8644 126.865 13.5836 126.772 13.3183C126.679 13.0374 126.516 12.7955 126.284 12.5927C126.066 12.3742 125.756 12.2104 125.353 12.1012C124.965 11.9763 124.469 11.9139 123.864 11.9139H121.469V16.5718H124.167Z" fill="white"/>
</svg>
