<svg fill="none" height="28" viewBox="0 0 28 28" width="28" xmlns="http://www.w3.org/2000/svg"><path clip-rule="evenodd" d="m11.971 18.3171c0-1.4968-.0084-2.9936.0085-4.4905 0-.2537-.0677-.3298-.3214-.3213-.4651.0169-.9302 0-1.4038.0084-.186.0085-.26213-.0507-.2537-.2452.0085-.9302.0085-1.8689 0-2.7992 0-.1775.0508-.2367.2368-.2367.4736.0084.9556-.017 1.4292.0084.2791.0169.3298-.0846.3298-.33825-.0169-.71036-.0169-1.42072 0-2.13108.0169-.87104.2537-1.68288.7696-2.38478.6511-.8964 1.5814-1.30232 2.6553-1.35306 1.0994-.05074 2.2072-.02537 3.3151-.03383.1522 0 .2029.05074.2029.20296-.0084.94715-.0084 1.89429 0 2.83298 0 .16913-.0507.21987-.2199.21987-.5327-.00845-1.0655-.00845-1.5898 0-.7104 0-1.1332.36364-1.1755 1.06554-.0338.55814-.0084 1.12474-.0254 1.69135-.0084.2029.1184.186.2453.186.8034 0 1.6152.0085 2.4186-.0084.2368 0 .3129.0507.2875.296-.1015.9386-.186 1.8773-.2706 2.8245-.0169.2114-.1184.2537-.3044.2537-.6343-.0085-1.277-.0085-1.9112 0-.4567 0-.4144-.0677-.4144.3974 0 2.9345-.0085 5.8605.0084 8.795 0 .3129-.0761.389-.3805.3805-1.0909-.0169-2.1903-.0169-3.2812 0-.3044.0085-.3552-.1015-.3552-.3721 0-1.4968 0-2.9683 0-4.4482z" fill="#08274c" fill-rule="evenodd"/></svg>