<svg fill="none" height="64" viewBox="0 0 64 64" width="64" xmlns="http://www.w3.org/2000/svg"><g fill="#b1f4b4" stroke="#08274c"><path d="m22.2753 18.6148c.2739 1.6775-.872 3.2629-2.5664 3.5363-1.6943.2734-3.2859-.8703-3.5598-2.5478-.2739-1.6774.872-3.2629 2.5663-3.5363 1.6944-.2734 3.286.8704 3.5599 2.5478z"/><path d="m35.2504 18.6158c.2739 1.6774-.872 3.2629-2.5664 3.5363-1.6943.2734-3.2859-.8704-3.5598-2.5478s.872-3.2629 2.5663-3.5363c1.6944-.2734 3.286.8704 3.5599 2.5478z"/><path d="m48.226 18.6158c.2739 1.6774-.872 3.2629-2.5664 3.5363-1.6943.2734-3.2859-.8704-3.5598-2.5478-.274-1.6774.872-3.2629 2.5663-3.5363s3.286.8704 3.5599 2.5478z"/><path d="m14.5415 38.5461v-.5h-.5-.5707c-.0001 0-.0002 0-.0004 0-.5531-.0014-1.0668-.1785-1.4317-.47-.3618-.2891-.5365-.6541-.5387-1.0046v-10.8153c0-.7039.3488-1.4085 1.023-1.948.6772-.5417 1.6151-.859 2.6104-.859h7.4639c.9941.0014 1.9302.3192 2.6059.8607.6729.5393 1.0209 1.2432 1.0209 1.9463v10.8157c-.0014.3502-.1753.7151-.5367 1.0042-.3643.2915-.8775.4686-1.4302.47-.0002 0-.0003 0-.0004 0h-.5707-.5v.5 10.7135h-8.6446z"/><path d="m27.4257 38.5461v-.5h-.5-.6008c-.0002 0-.0003 0-.0005 0-.5936-.0014-1.1437-.1821-1.5332-.4777-.3863-.2932-.5648-.657-.5671-.997v-10.8152c0-.6932.3617-1.3966 1.077-1.9403.7181-.5458 1.7149-.8667 2.774-.8667h7.8567c1.0579.0014 2.0528.3228 2.7694.8684.7138.5434 1.0746 1.2461 1.0746 1.9386v10.8158c-.0015.3396-.1792.7032-.565.9965-.3888.2955-.9384.4762-1.5317.4776-.0001 0-.0002 0-.0004 0h-.6008-.5v.5 10.7135h-9.1522z"/><path d="m40.8174 38.5461v-.5h-.5-.5707c-.0001 0-.0003 0-.0004 0-.5532-.0014-1.0668-.1785-1.4317-.47-.3619-.2891-.5365-.6541-.5387-1.0046v-10.8153c0-.7039.3487-1.4085 1.023-1.948.6772-.5417 1.6151-.859 2.6104-.859h7.4639c.994.0014 1.9302.3192 2.6059.8607.6729.5393 1.0209 1.2432 1.0209 1.9463v10.8157c-.0014.3502-.1754.7151-.5367 1.0042-.3643.2915-.8775.4686-1.4303.47-.0001 0-.0002 0-.0004 0h-.5707-.5v.5 10.7135h-8.6445z"/></g></svg>