<svg
	width="156"
	height="156"
	viewBox="0 0 156 156"
	fill="none"
	xmlns="http://www.w3.org/2000/svg"
>
	<path
		d="M89.1209 4.63303C92.7056 -3.45732 104.862 -0.198962 103.923 8.60037L102.741 19.6668C102.027 26.3583 109.586 30.7238 115.022 26.7591L124.012 20.2023C131.161 14.9887 140.06 23.8907 134.848 31.0412L128.293 40.034C124.329 45.4717 128.694 53.033 135.383 52.3183L146.447 51.1363C155.243 50.1965 158.501 62.3568 150.413 65.9425L140.241 70.4521C134.09 73.179 134.09 81.91 140.241 84.6368L150.413 89.1464C158.501 92.7322 155.243 104.892 146.447 103.953L135.383 102.771C128.694 102.056 124.329 109.617 128.293 115.055L134.848 124.048C140.06 131.198 131.161 140.1 124.012 134.887L115.022 128.33C109.586 124.365 102.027 128.731 102.741 135.422L103.923 146.489C104.862 155.288 92.7056 158.546 89.1209 150.456L84.6126 140.281C81.8865 134.129 73.158 134.129 70.4319 140.281L65.9236 150.456C62.3389 158.546 50.1821 155.288 51.1217 146.489L52.3033 135.422C53.0178 128.731 45.4587 124.365 40.0225 128.33L31.0323 134.887C23.8838 140.1 14.9844 131.198 20.1965 124.048L26.7514 115.055C30.715 109.617 26.3508 102.056 19.6611 102.771L8.5979 103.953C-0.198908 104.892 -3.45629 92.7321 4.63175 89.1464L14.8036 84.6368C20.9542 81.91 20.9542 73.1789 14.8035 70.4521L4.6317 65.9425C-3.45633 62.3568 -0.198905 50.1965 8.5979 51.1363L19.6611 52.3183C26.3508 53.033 30.715 45.4717 26.7514 40.034L20.1965 31.0412C14.9844 23.8906 23.8838 14.9887 31.0323 20.2023L40.0225 26.7591C45.4587 30.7238 53.0178 26.3583 52.3033 19.6667L51.1217 8.60035C50.1821 -0.19898 62.3389 -3.45728 65.9237 4.63307L70.4319 14.8078C73.158 20.9602 81.8865 20.9602 84.6126 14.8078L89.1209 4.63303Z"
		fill="white"
	/>
	<ellipse cx="78.2822" cy="78.3046" rx="32.681" ry="32.6903" fill="#B1F4B4" />
</svg>
