<svg fill="none" height="439" viewBox="0 0 320 439" width="320" xmlns="http://www.w3.org/2000/svg" xmlns:xlink="http://www.w3.org/1999/xlink"><clipPath id="a"><path d="m0 0h320v438.519h-320z"/></clipPath><g clip-path="url(#a)"><path d="m226.109 90.528h-.116c-.247-7.2124-26.082-13.0495-57.923-13.0495-31.842 0-57.669 5.8371-57.916 13.0495h-.05v22.423h.05c.264 7.213 26.09 13.042 57.916 13.042 31.825 0 57.659-5.829 57.923-13.042h.116z" fill="#ff6190"/><path d="m168.078 99.6481c26.062 0 47.189-4.0355 47.189-9.0135s-21.127-9.0135-47.189-9.0135-47.189 4.0355-47.189 9.0135 21.127 9.0135 47.189 9.0135z" fill="#08274c"/><path d="m226.233 225.804v-26.467c-2.137 6.819-27.229 12.206-57.759 12.206-31.99 0-57.924-5.886-57.924-13.147h-.478v28.555h.099c.181 7.253 26.14 13.098 58.138 13.098s58.138-5.902 58.138-13.197c-.014-.358-.087-.712-.214-1.048z" fill="#ff6190"/><path d="m225.977 187.737v-36.971c.105-.317.158-.649.157-.983-.003-.32-.056-.637-.157-.941v-11.797-14.736c-2.129 6.803-27.114 12.173-57.627 12.173-31.907 0-57.759-5.878-57.759-13.098h-.478v15.661 51.428h.256v.271c0 7.261 25.933 13.147 57.923 13.147s57.924-5.886 57.924-13.147c-.024-.347-.105-.687-.239-1.007z" fill="#ff6190"/><path d="m159.414 168.236h-16.04c.064 4.413 1.275 8.734 3.515 12.546 2.241 3.812 5.435 6.986 9.274 9.214l8.177-13.688c-1.451-.814-2.667-1.984-3.534-3.397-.866-1.412-1.354-3.022-1.417-4.675zm14.464 8.187 8.177 13.688c3.878-2.209 7.111-5.378 9.385-9.198 2.273-3.82 3.509-8.159 3.586-12.595h-16.04c-.081 1.668-.593 3.286-1.488 4.7-.894 1.414-2.141 2.575-3.62 3.372zm-4.678-18.24c1.905-.003 3.769.546 5.363 1.58l7.682-13.983c-3.955-2.301-8.459-3.511-13.045-3.504-4.569-.005-9.057 1.196-13.004 3.48l7.707 13.966c1.58-1.007 3.419-1.542 5.297-1.539z" fill="#08274c"/><path d="m174.25 167.868c.005.661-.121 1.317-.373 1.93-.251.612-.622 1.169-1.091 1.639-.47.47-1.028.842-1.644 1.097-.615.254-1.275.385-1.942.385-1.339 0-2.624-.528-3.571-1.468-.947-.939-1.479-2.214-1.479-3.542 0-1.329.532-2.603 1.479-3.543s2.232-1.468 3.571-1.468 2.624.528 3.571 1.468 1.479 2.214 1.479 3.543" fill="#08274c"/><path d="m43.1723 356.879c5.8386-.94 9.8035-6.399 8.8558-12.192-.9478-5.793-6.4493-9.726-12.2879-8.786s-9.8034 6.399-8.8557 12.192c.9477 5.792 6.4492 9.726 12.2878 8.786z" fill="#08274c"/><path d="m50.3655 357.389h-17.8805c-2.626 0-5.1445 1.035-7.0014 2.877s-2.9001 4.341-2.9001 6.947v32.132c.0044 1.555.6293 3.045 1.7381 4.143 1.1088 1.099 2.6111 1.717 4.1781 1.719h1.3615v33.312h23.1035v-33.312h1.3696c1.5655-.004 3.0658-.623 4.1728-1.722 1.107-1.098 1.7308-2.586 1.7351-4.14v-32.132c0-2.602-1.0398-5.097-2.8913-6.938-1.8516-1.842-4.3637-2.88-6.9854-2.886z" fill="#08274c"/><path d="m102.533 356.882c5.838-.941 9.803-6.399 8.855-12.192-.947-5.793-6.449-9.726-12.2875-8.786-5.8386.94-9.8034 6.399-8.8557 12.191.9478 5.793 6.4492 9.727 12.2882 8.787z" fill="#08274c"/><path d="m109.725 357.389h-17.8801c-2.6261 0-5.1446 1.035-7.0015 2.877s-2.9 4.341-2.9 6.947v32.132c.0065 1.554.6321 3.043 1.7405 4.141 1.1083 1.098 2.6092 1.717 4.1755 1.721h1.3698v33.312h23.1038v-33.312h1.369c1.566-.004 3.066-.623 4.173-1.722 1.107-1.098 1.731-2.586 1.735-4.14v-32.132c0-2.603-1.041-5.099-2.894-6.941s-4.368-2.879-6.991-2.883z" fill="#08274c"/><path d="m161.892 356.877c5.839-.94 9.804-6.399 8.856-12.192-.947-5.793-6.449-9.726-12.288-8.786-5.838.94-9.803 6.399-8.855 12.192.947 5.792 6.449 9.726 12.287 8.786z" fill="#08274c"/><path d="m169.085 357.389h-17.881c-2.626 0-5.144 1.035-7.001 2.877s-2.9 4.341-2.9 6.947v32.132c.006 1.554.632 3.043 1.74 4.141 1.109 1.098 2.61 1.717 4.176 1.721h1.37v33.312h23.103v-33.312h1.37c1.565-.004 3.066-.623 4.173-1.722 1.107-1.098 1.73-2.586 1.735-4.14v-32.132c0-2.603-1.041-5.099-2.895-6.941-1.853-1.842-4.367-2.879-6.99-2.883z" fill="#08274c"/><path d="m221.244 356.879c5.839-.94 9.803-6.399 8.856-12.192-.948-5.793-6.449-9.726-12.288-8.786s-9.803 6.399-8.856 12.192c.948 5.792 6.449 9.726 12.288 8.786z" fill="#08274c"/><path d="m228.452 357.389h-17.888c-2.626 0-5.145 1.035-7.002 2.877s-2.9 4.341-2.9 6.947v32.132c.007 1.554.632 3.043 1.741 4.141 1.108 1.098 2.609 1.717 4.175 1.721h1.37v33.312h23.103v-33.312h1.37c1.566-.004 3.067-.623 4.176-1.721 1.108-1.098 1.734-2.587 1.74-4.141v-32.132c0-2.603-1.041-5.099-2.894-6.941s-4.368-2.879-6.991-2.883z" fill="#08274c"/><path d="m280.604 356.874c5.839-.94 9.803-6.399 8.856-12.192-.948-5.792-6.45-9.726-12.288-8.786-5.839.94-9.804 6.399-8.856 12.192s6.449 9.726 12.288 8.786z" fill="#08274c"/><path d="m287.812 357.389h-17.889c-2.626 0-5.145 1.035-7.001 2.877-1.857 1.842-2.901 4.341-2.901 6.947v32.132c.007 1.554.633 3.043 1.741 4.141s2.609 1.717 4.176 1.721h1.369v33.312h23.104v-33.312h1.37c1.566-.004 3.067-.623 4.175-1.721 1.109-1.098 1.734-2.587 1.741-4.141v-32.132c0-2.603-1.041-5.099-2.895-6.941-1.853-1.842-4.367-2.879-6.99-2.883z" fill="#08274c"/><g stroke="#20aad7" stroke-miterlimit="10" stroke-width="4"><path d="m160.544 40.3357v-40.3357"/><path d="m244.773 75.3993 28.748-28.5223"/><path d="m279.346 159.288h40.654"/><path d="m243.998 242.857 28.755 28.523"/><path d="m159.456 277.159v40.336"/><path d="m75.2268 242.088-28.7473 28.53"/><path d="m40.6539 158.207h-40.6539"/><path d="m75.9939 74.6376-28.7473-28.5224"/><path d="m56.3726 217.479-35.208 20.171"/><path d="m44.8619 127.573-39.26766-10.438"/><path d="m100.797 55.9315-20.3224-34.9325"/><path d="m191.413 44.5111 10.528-38.96032"/><path d="m263.627 100.008 35.209-20.1633"/><path d="m275.138 189.914 39.268 10.446"/><path d="m219.194 261.563 20.331 34.933"/><path d="m128.579 272.984-10.52 38.961"/><path d="m206.199 50.225 15.619-37.2411"/><path d="m270.385 114.704 37.585-15.3749"/><path d="m269.824 205.33 37.535 15.497"/><path d="m204.837 269.014 15.496 37.29"/><path d="m113.496 268.457-15.6195 37.241"/><path d="m49.3095 203.979-37.5927 15.374"/><path d="m49.8704 113.353-37.535-15.4975"/><path d="m114.858 49.6685-15.5045-37.2984"/><path d="m41.4294 174.073-40.31563 5.199"/><path d="m65.6138 86.6804-32.2129-24.6091"/><path d="m144.999 41.8501-5.239-40"/><path d="m233.082 65.8455 24.803-31.9607"/><path d="m278.265 144.609 40.316-5.199"/><path d="m254.081 232.002 32.212 24.609"/><path d="m174.695 276.832 5.24 40"/><path d="m86.6133 252.837-24.8032 31.961"/></g></g></svg>