<svg
	viewBox="0 0 190 165"
	fill="none"
	xmlns="http://www.w3.org/2000/svg"
>
	<g filter="url(#filter0_d_1651_2511)">
		<g clip-path="url(#clip0_1651_2511)">
			<path
				d="M48.7765 63.3676C48.3476 61.7672 49.2974 60.1222 50.8978 59.6934L151.354 32.7762C152.954 32.3474 154.599 33.2971 155.028 34.8975L164.346 69.6709C164.775 71.2713 163.825 72.9163 162.224 73.3451L61.7682 100.262C60.1678 100.691 58.5228 99.7414 58.0939 98.141L48.7765 63.3676Z"
				fill="#B1F4B4"
			/>
			<path
				d="M67.7011 72.8942C69.1615 72.5029 70.3628 72.535 71.3049 72.9908C72.2585 73.4434 72.903 74.2956 73.2385 75.5474L74.7665 81.2502L72.4019 81.8838L70.8878 76.2332C70.7077 75.5609 70.3856 75.1006 69.9215 74.8522C69.4659 74.5892 68.8904 74.5508 68.1949 74.7372C67.4994 74.9235 67.0144 75.2461 66.7397 75.7048C66.4736 76.1488 66.4306 76.7069 66.6107 77.3792L67.0486 79.0136C67.2297 78.5302 67.4967 78.1357 67.8496 77.8299C68.2025 77.5242 68.6571 77.2968 69.2135 77.1477L69.6308 77.0359L70.1246 78.8789L69.7073 78.9907C69.0234 79.1739 68.5093 79.4111 68.1649 79.7021C67.8205 79.9932 67.613 80.378 67.5425 80.8566L68.1248 83.0299L65.7602 83.6635L64.2322 77.9606C63.8967 76.7088 64.023 75.65 64.611 74.7844C65.2106 73.9156 66.2406 73.2855 67.7011 72.8942ZM80.42 79.9217C79.7246 80.1081 79.0105 80.2249 78.2777 80.2721C77.5419 80.3078 76.9111 80.2719 76.3853 80.1643L76.4445 78.229C77.7634 78.4222 78.9039 78.3899 79.866 78.1322C80.4224 77.9831 80.8063 77.7932 81.0178 77.5626C81.2378 77.3173 81.3028 77.0266 81.2127 76.6905C81.1444 76.4355 81.0147 76.2528 80.8237 76.1425C80.6442 76.0291 80.4014 75.9575 80.0952 75.9277C79.8007 75.8948 79.3624 75.8818 78.7803 75.8887C78.0846 75.8888 77.5018 75.8462 77.0317 75.7609C76.5616 75.6757 76.1451 75.4891 75.7823 75.2012C75.431 74.9102 75.1761 74.4692 75.0177 73.878C74.7755 72.9739 74.9168 72.2031 75.4417 71.5655C75.9665 70.9279 76.8607 70.4399 78.1241 70.1013C78.7152 69.943 79.3219 69.8425 79.9441 69.8C80.5779 69.7544 81.1283 69.7685 81.5953 69.8421L81.5302 71.6858C80.3359 71.6331 79.362 71.7077 78.6086 71.9096C77.6234 72.1736 77.2022 72.5722 77.345 73.1053C77.432 73.4299 77.6537 73.6314 78.0102 73.7098C78.3782 73.7851 78.9158 73.8212 79.6231 73.818C80.0189 73.8114 80.3115 73.8137 80.5009 73.8251C81.3164 73.855 81.9771 74.0258 82.483 74.3375C82.9889 74.6492 83.3397 75.1702 83.5354 75.9004C83.7901 76.8509 83.6454 77.6785 83.1012 78.3834C82.5656 79.0735 81.6719 79.5863 80.42 79.9217ZM90.632 77.1855C89.2758 77.5488 88.1209 77.5042 87.1673 77.0516C86.2137 76.599 85.5846 75.8048 85.2803 74.6688L83.7056 68.7921L86.0702 68.1585L87.6029 73.8788C87.7675 74.4931 88.0777 74.9318 88.5333 75.1948C88.9889 75.4579 89.5238 75.5071 90.1382 75.3425C90.7757 75.1716 91.2317 74.8569 91.5064 74.3982C91.781 73.9395 91.836 73.4029 91.6714 72.7886L90.1387 67.0684L92.5033 66.4348L94.0779 72.3115C94.3823 73.4474 94.2231 74.4529 93.6004 75.3279C92.9892 76.1998 91.9997 76.819 90.632 77.1855ZM100.044 74.5705C99.2206 74.791 98.5797 74.7639 98.121 74.4893C97.6708 74.1999 97.3277 73.6148 97.0916 72.7339L95.2095 65.7097L97.5741 65.0761L99.4003 71.8917C99.4779 72.1814 99.586 72.3761 99.7245 72.4757C99.8599 72.5636 100.049 72.575 100.293 72.5098C100.536 72.4445 100.723 72.3759 100.852 72.3039L101.453 73.9879C101.035 74.2365 100.565 74.4307 100.044 74.5705ZM105.034 73.2334C104.211 73.4539 103.57 73.4269 103.111 73.1522C102.661 72.8629 102.318 72.2778 102.082 71.3968L100.199 64.3726L102.564 63.739L104.39 70.5546C104.468 70.8444 104.576 71.0391 104.714 71.1386C104.85 71.2266 105.039 71.2379 105.283 71.1727C105.526 71.1075 105.713 71.0388 105.842 70.9668L106.443 72.6508C106.025 72.8994 105.555 73.0936 105.034 73.2334ZM109.137 61.7915C110.493 61.4281 111.607 61.4341 112.478 61.8095C113.348 62.1849 113.928 62.9116 114.217 63.9896L115.89 70.2314L113.525 70.865L112.463 66.9008L111.519 67.135C110.43 67.4269 109.669 67.7424 109.238 68.0815C108.804 68.409 108.65 68.8046 108.774 69.2682C108.87 69.6276 109.061 69.8747 109.345 70.0096C109.627 70.133 109.982 70.1372 110.411 70.0223C110.724 69.9384 111.079 69.7811 111.477 69.5502L112.227 71.0265C111.819 71.3594 111.238 71.6268 110.485 71.8287C109.384 72.1237 108.485 72.085 107.789 71.7125C107.093 71.3399 106.634 70.7422 106.414 69.9192C106.147 68.9224 106.383 68.0641 107.122 67.3443C107.857 66.613 109.106 66.0112 110.868 65.5392L112.025 65.2665L111.922 64.8839C111.758 64.2696 111.464 63.8699 111.042 63.6849C110.628 63.4852 110.05 63.4848 109.309 63.6835C108.764 63.8295 108.265 64.0315 107.812 64.2894C107.357 64.5358 106.884 64.8799 106.393 65.3219L105.22 63.8658C105.719 63.4092 106.312 63.0019 106.999 62.6439C107.694 62.2713 108.407 61.9871 109.137 61.7915ZM107.837 59.3259C108.101 59.2428 108.331 59.1502 108.527 59.0479C108.919 58.8434 109.069 58.5672 108.976 58.2195C108.923 58.0225 108.826 57.8931 108.685 57.8314C108.545 57.7698 108.353 57.7715 108.109 57.8368C108.028 57.8585 107.837 57.9345 107.537 58.0647L107.183 56.7433C107.782 56.3839 108.325 56.139 108.812 56.0086C109.403 55.8502 109.895 55.855 110.288 56.023C110.681 56.1911 110.939 56.5069 111.064 56.9706C111.126 57.2024 111.15 57.4319 111.136 57.6592C111.111 57.8896 111.048 58.093 110.946 58.2693L114.127 57.4168L114.537 58.9468L108.191 60.6472L107.837 59.3259ZM120.882 69.08C120.314 69.2322 119.697 69.3168 119.031 69.3338C118.364 69.3508 117.759 69.2955 117.216 69.1678L117.459 67.295C118.514 67.5218 119.407 67.5373 120.137 67.3416C120.913 67.1335 121.447 66.6923 121.739 66.0179C122.03 65.3435 122.044 64.5137 121.78 63.5285C121.522 62.5664 121.116 61.8863 120.562 61.4881C120.008 61.0899 119.331 60.9979 118.532 61.2122C117.848 61.3955 117.084 61.8362 116.24 62.5344L115.083 60.9995C115.441 60.6675 115.915 60.3481 116.503 60.0412C117.104 59.7313 117.694 59.4987 118.273 59.3434C119.745 58.949 120.986 59.0577 121.994 59.6694C123.015 60.2781 123.73 61.3474 124.14 62.8775C124.556 64.4307 124.476 65.7565 123.901 66.8548C123.326 67.9531 122.319 68.6948 120.882 69.08Z"
				fill="#08274C"
			/>
			<path
				d="M141.538 65.6883C145.939 64.509 148.551 59.9852 147.371 55.5841C146.192 51.183 141.668 48.5712 137.267 49.7505C132.866 50.9298 130.254 55.4535 131.434 59.8546C132.613 64.2557 137.137 66.8675 141.538 65.6883Z"
				stroke="#08274C"
				stroke-width="2"
				stroke-linecap="round"
				stroke-linejoin="round"
			/>
			<path
				d="M143.388 58.7864C143.2 59.4857 142.831 60.1233 142.319 60.6351C141.807 61.1469 141.169 61.515 140.47 61.7025C139.77 61.8899 139.034 61.89 138.335 61.7028C137.635 61.5156 136.997 61.1477 136.485 60.636"
				stroke="#08274C"
				stroke-width="2"
				stroke-linecap="round"
				stroke-linejoin="round"
			/>
			<path
				d="M136.236 57.8559C136.786 57.7085 137.113 57.143 136.965 56.5929C136.818 56.0428 136.252 55.7163 135.702 55.8637C135.152 56.0111 134.826 56.5766 134.973 57.1267C135.12 57.6769 135.686 58.0033 136.236 57.8559Z"
				fill="#08274C"
			/>
			<path
				d="M142.213 56.2545C142.763 56.1071 143.089 55.5416 142.942 54.9915C142.794 54.4413 142.229 54.1149 141.679 54.2623C141.129 54.4097 140.802 54.9751 140.95 55.5253C141.097 56.0754 141.662 56.4019 142.213 56.2545Z"
				fill="#08274C"
			/>
		</g>
	</g>
	<defs>
		<filter
			id="filter0_d_1651_2511"
			x="0"
			y="-0.000244141"
			width="213.122"
			height="165.039"
			filterUnits="userSpaceOnUse"
			color-interpolation-filters="sRGB"
		>
			<feFlood flood-opacity="0" result="BackgroundImageFix" />
			<feColorMatrix
				in="SourceAlpha"
				type="matrix"
				values="0 0 0 0 0 0 0 0 0 0 0 0 0 0 0 0 0 0 127 0"
				result="hardAlpha"
			/>
			<feOffset dy="16" />
			<feGaussianBlur stdDeviation="24" />
			<feColorMatrix
				type="matrix"
				values="0 0 0 0 0 0 0 0 0 0 0 0 0 0 0 0 0 0 0.176 0"
			/>
			<feBlend
				mode="multiply"
				in2="BackgroundImageFix"
				result="effect1_dropShadow_1651_2511"
			/>
			<feBlend
				mode="normal"
				in="SourceGraphic"
				in2="effect1_dropShadow_1651_2511"
				result="shape"
			/>
		</filter>
		<clipPath id="clip0_1651_2511">
			<path
				d="M48.7765 63.3676C48.3476 61.7672 49.2974 60.1222 50.8978 59.6934L151.354 32.7762C152.954 32.3474 154.599 33.2971 155.028 34.8975L164.346 69.6709C164.775 71.2713 163.825 72.9163 162.224 73.3451L61.7682 100.262C60.1678 100.691 58.5228 99.7414 58.0939 98.141L48.7765 63.3676Z"
				fill="white"
			/>
		</clipPath>
	</defs>
</svg>
