<svg fill="none" height="22" viewBox="0 0 22 22" width="22" xmlns="http://www.w3.org/2000/svg"><path clip-rule="evenodd" d="m11 22c6.0751 0 11-4.9249 11-11 0-6.07513-4.9249-11-11-11-6.07513 0-11 4.92487-11 11 0 6.0751 4.92487 11 11 11zm5.2222-12.83586c.4036-.45406.3627-1.14934-.0914-1.55295-.454-.40361-1.1493-.36271-1.5529.09136l-5.04455 5.67505-2.11119-2.3751c-.40361-.454-1.09889-.4949-1.55295-.0913s-.49496 1.0989-.09135 1.5529l1.46667 1.65 1.46666 1.65c.20875.2349.50795.3692.82216.3692.3142 0 .61345-.1343.82215-.3692z" fill="#20aad7" fill-rule="evenodd"/></svg>