<svg width="48" height="49" viewBox="0 0 48 49" fill="none" xmlns="http://www.w3.org/2000/svg">
<path fill-rule="evenodd" clip-rule="evenodd" d="M24 48.3391C37.2548 48.3391 48 37.5939 48 24.3391C48 11.0843 37.2548 0.339111 24 0.339111C10.7452 0.339111 0 11.0843 0 24.3391C0 37.5939 10.7452 48.3391 24 48.3391ZM35.3938 20.3336C36.2744 19.3429 36.1852 17.826 35.1945 16.9454C34.2038 16.0648 32.6868 16.154 31.8062 17.1447L20.8 29.5267L16.1938 24.3447C15.3132 23.354 13.7962 23.2647 12.8056 24.1454C11.8149 25.026 11.7256 26.5429 12.6062 27.5336L15.8062 31.1336L19.0062 34.7336C19.4617 35.246 20.1145 35.5391 20.8 35.5391C21.4856 35.5391 22.1384 35.246 22.5938 34.7336L35.3938 20.3336Z" fill="white"/>
</svg>
