<svg fill="none" height="247" viewBox="0 0 252 247" width="252" xmlns="http://www.w3.org/2000/svg"><path d="m56.1707 114.613c30.8238.099 55.7313-25.4373 55.6313-57.0372-.099-31.6-25.1669-57.297151-55.9907-57.396291-30.8237-.09914-55.7308388 25.437291-55.631585 57.037191.099254 31.6 25.167285 57.2973 55.990985 57.3963z" fill="#08274c"/><g fill="#ff6190"><path d="m27.8003 81.0439c8.6015.0277 15.552-7.0984 15.5243-15.9165-.0277-8.8182-7.0231-15.9891-15.6246-16.0168-8.6016-.0276-15.5521 7.0985-15.5244 15.9166s7.0231 15.9891 15.6247 16.0167z"/><path d="m39.3023 58.8908c6.8772.0221 12.4342-5.6754 12.4121-12.7257-.0222-7.0503-5.6151-12.7836-12.4923-12.8057-6.8771-.0221-12.4341 5.6753-12.412 12.7256.0222 7.0503 5.6151 12.7837 12.4922 12.8058z"/><path d="m54.6377 52.9834c8.6015.0277 15.552-7.0984 15.5243-15.9166-.0277-8.8181-7.0231-15.989-15.6246-16.0167-8.6016-.0277-15.5521 7.0984-15.5244 15.9165.0277 8.8182 7.0231 15.9891 15.6247 16.0168z"/><path d="m28.2111 29.1118c3.5139.0113 6.3533-2.8999 6.342-6.5023s-2.8691-6.5318-6.383-6.5431-6.3533 2.8998-6.342 6.5022 2.8691 6.5319 6.383 6.5432z"/><path d="m98.5926 67.0753c1.7024.0054 3.0774-1.4047 3.0724-3.1498-.006-1.745-1.39-3.164-3.0922-3.1695s-3.0776 1.4047-3.0722 3.1497c.0055 1.745 1.3898 3.1641 3.092 3.1696z"/><path d="m73.5171 79.8594c9.6221.0309 17.3973-7.9407 17.3663-17.8051-.031-9.8645-7.8564-17.8863-17.4785-17.9172-9.6222-.031-17.3974 7.9407-17.3664 17.8051.031 9.8645 7.8564 17.8862 17.4786 17.9172z"/><path d="m77.8876 58.4707c8.6016.0277 15.552-7.0984 15.5244-15.9166-.0277-8.8181-7.0231-15.989-15.6247-16.0167-8.6015-.0277-15.552 7.0984-15.5243 15.9166.0277 8.8181 7.0231 15.989 15.6246 16.0167z"/><path d="m93.1209 45.5292c5.3719.0173 9.7131-4.4332 9.6951-9.9403-.017-5.5072-4.3859-9.9857-9.7578-10.0029-5.3719-.0173-9.7126 4.4331-9.6953 9.9403s4.3861 9.9856 9.758 10.0029z"/></g><path clip-rule="evenodd" d="m83.1969 106.515-.0555-17.687c-.0066-2.1067-1.6778-3.8199-3.7327-3.8265l-11.1003-.0357c-2.0549-.0066-3.7154 1.6959-3.7088 3.8025l.0768 24.4417c6.6466-1.1 12.8934-3.407 18.5205-6.695z" fill="#fff" fill-rule="evenodd"/><path clip-rule="evenodd" d="m36.391 110.287-.0684-21.7901c-.0067-2.1067-1.6779-3.8198-3.7328-3.8264l-11.1002-.0357c-2.055-.0066-3.7154 1.6958-3.7088 3.8025l.0323 10.293c5.3525 5.0017 11.6484 8.9597 18.5779 11.5567z" fill="#fff" fill-rule="evenodd"/><path d="m195.801 114.103c30.565.099 55.264-25.2239 55.165-56.5592-.098-31.3353-24.956-56.817296-55.522-56.915604-30.566-.098307-55.264 25.224304-55.166 56.559604.099 31.3353 24.957 56.8172 55.523 56.9152z" fill="#08274c"/><path d="m227.383 99.6493c-2.244-.0072-3.665.9337-4.951 1.6957-1.285.762-2.282 1.499-2.282 1.499-.548.411-1.117.791-1.706 1.136-.667.347-1.358.647-2.067.895-.717-.251-1.415-.555-2.09-.909-.592-.349-1.164-.731-1.713-1.146-.738-.544-1.502-1.049-2.29-1.514-1.293-.761-2.717-1.7204-4.964-1.7277-2.248-.0072-3.687.9337-4.964 1.6957-.78.457-1.536.958-2.264 1.499-.549.411-1.119.79-1.709 1.136-.672.35-1.367.649-2.082.895-.71-.253-1.402-.557-2.072-.908-.593-.351-1.167-.733-1.719-1.147-.738-.544-1.502-1.049-2.289-1.514-1.291-.761-2.73-1.7205-4.974-1.7277-2.245-.0072-3.662.9337-4.948 1.6957-.785.46-1.546.96-2.28 1.499-.55.411-1.122.79-1.712 1.136-.671.348-1.366.647-2.079.895-.71-.252-1.403-.556-2.072-.908-.593-.351-1.167-.733-1.719-1.147-.739-.544-1.504-1.05-2.292-1.514-1.291-.761-2.715-1.7204-4.959-1.7276-.802-.0064-1.598.1231-2.357.3832 4.761 4.3814 10.219 7.8914 16.134 10.3754.778-.338 1.529-.736 2.247-1.191.785-.46 1.546-.962 2.28-1.503 0 0 .748-.558 1.709-1.122.668-.349 1.359-.652 2.066-.908.715.258 1.413.566 2.088.921.964.57 1.719 1.134 1.719 1.134.736.546 1.499 1.052 2.286 1.517 1.291.761 2.717 1.736 4.965 1.743 2.248.008 3.687-.959 4.96-1.711.782-.458 1.539-.96 2.268-1.503 0 0 .751-.558 1.712-1.123.672-.35 1.366-.653 2.078-.907.71.261 1.402.568 2.073.921.964.57 1.719 1.134 1.719 1.134.737.545 1.501 1.052 2.289 1.517 1.1.634 2.311 1.451 4.03 1.677 5.921-2.293 11.406-5.616 16.215-9.823-1.127-.656-2.43-1.3127-4.284-1.3187z" fill="#b1f4b4"/><path d="m140.303 59.208c.265.1148.524.2451.776.3902.964.5705 1.719 1.134 1.719 1.134.729.556 1.489 1.0678 2.277 1.5329 1.29.7606 2.729 1.7203 4.971 1.7275 2.241.0072 3.686-.9337 4.963-1.6956.784-.4599 1.541-.9669 2.267-1.5183 0 0 .752-.5586 1.712-1.1229.67-.3483 1.364-.6463 2.076-.8917.712.251 1.405.5534 2.075.905.964.5705 1.719 1.134 1.719 1.134.735.5542 1.5 1.066 2.29 1.533 1.29.7606 2.729 1.7203 4.974 1.7275 2.244.0072 3.662-.9338 4.948-1.6956.787-.4619 1.548-.9688 2.279-1.5183 0 0 .752-.5586 1.712-1.1229.668-.3471 1.358-.6451 2.067-.8917.716.2504 1.413.5529 2.087.905.965.5705 1.716 1.134 1.716 1.134.735.5542 1.5 1.066 2.29 1.533 1.29.7606 2.714 1.7202 4.958 1.7275 2.245.0072 3.687-.9338 4.967-1.6956.784-.46 1.541-.9669 2.267-1.5183 0 0 .746-.5587 1.706-1.123.672-.3503 1.369-.6483 2.085-.8916.71.2517 1.403.5541 2.072.905.964.5705 1.732 1.134 1.732 1.134.728.5565 1.487 1.0684 2.273 1.5329 1.291.7607 2.733 1.7204 4.978 1.7276 2.244.0072 3.662-.9338 4.948-1.6956.787-.4624 1.55-.9693 2.282-1.5183 0 0 .746-.5587 1.706-1.123.671-.3501 1.367-.6481 2.082-.8916.712.2509 1.405.5534 2.075.905.964.5705 1.716 1.134 1.716 1.134.734.5547 1.497 1.0664 2.287 1.5329 1.293.7607 2.72 1.7203 4.964 1.7275 2.245.0073 3.687-.9337 4.964-1.6955.787-.4619 1.548-.9688 2.279-1.5183 0 0 .749-.5587 1.706-1.123.668-.3473 1.36-.6453 2.07-.8916.132.0697.902.3181 1.634.664-.001-.3152-.001-.6052-.002-.9078-.006-1.8913-.101-3.7586-.285-5.6021-.454-.0885-.914-.1332-1.375-.1337-2.245-.0072-3.662.9338-4.948 1.6957-.788.4611-1.55.9669-2.283 1.5151-.55.4025-1.119.7762-1.706 1.1198-.673.3494-1.369.6484-2.085.8947-.71-.2533-1.402-.5567-2.072-.9081-.964-.5673-1.719-1.1308-1.719-1.1308-.734-.553-1.497-1.0637-2.286-1.5298-1.291-.7607-2.717-1.7203-4.962-1.7275-2.244-.0073-3.687.9337-4.963 1.6955-.787.4616-1.548.9674-2.28 1.5152 0 0-.748.5586-1.709 1.1198-.667.3482-1.357.6472-2.066.8948-.716-.2511-1.414-.5546-2.088-.9082-.964-.5673-1.719-1.1308-1.719-1.1308-.729-.5548-1.488-1.0656-2.274-1.5298-1.294-.7606-2.729-1.7203-4.974-1.7275-2.244-.0072-3.687.9337-4.963 1.6956-.784.4596-1.541.9655-2.268 1.5151 0 0-.748.5587-1.709 1.1198-.672.3494-1.369.6485-2.085.8948-.71-.2527-1.402-.5562-2.072-.9082-.589-.3473-1.16-.7247-1.713-1.1307-.736-.5521-1.502-1.0628-2.292-1.5299-1.291-.7606-2.73-1.7203-4.974-1.7275-2.245-.0073-3.662.9338-4.951 1.6956-.786.461-1.546.9669-2.277 1.5151 0 0-.751.5587-1.712 1.1198-.667.3482-1.357.6473-2.066.8948-.716-.2505-1.414-.554-2.088-.9082-.964-.5673-1.716-1.1308-1.716-1.1308-.735-.5524-1.499-1.0632-2.289-1.5298-1.291-.7606-2.717-1.7203-4.962-1.7275-2.244-.0072-3.686.9338-4.963 1.6956-.784.4596-1.541.9655-2.267 1.5152 0 0-.761.5586-1.722 1.1197-.668.3479-1.36.6469-2.069.8948-.716-.2511-1.414-.5546-2.088-.9082-.964-.5673-1.719-1.1308-1.719-1.1308-.727-.5552-1.485-1.066-2.271-1.5297-.964-.5674-2.008-1.2452-3.411-1.5555-.167 1.8308-.253 3.6839-.247 5.5626 0 .2553.02.5075.021.7597z" fill="#b1f4b4"/><path d="m240.467 88.1827c-.67.3517-1.366.6508-2.082.8947-.707-.2511-1.397-.5546-2.062-.9081-.965-.5673-1.717-1.1308-1.717-1.1308-.735-.5525-1.499-1.0632-2.289-1.5298-1.29-.7606-2.729-1.7203-4.974-1.7276-2.244-.0072-3.665.9339-4.951 1.6957-.787.462-1.549.9678-2.283 1.5151-.549.4025-1.119.7763-1.706 1.1198-.665.3495-1.355.6485-2.063.8948-.718-.2478-1.416-.5504-2.09-.905-.589-.3473-1.161-.7247-1.714-1.1308-.735-.5525-1.499-1.0632-2.289-1.5298-1.294-.7607-2.717-1.7203-4.965-1.7275-2.247-.0073-3.686.9337-4.963 1.6956-.783.4591-1.539.965-2.264 1.5151 0 0-.749.5587-1.709 1.1198-.671.3507-1.367.6487-2.082.8916-.711-.2497-1.404-.5521-2.072-.905-.964-.5673-1.719-1.1308-1.719-1.1308-.736-.5525-1.5-1.0632-2.29-1.5298-1.29-.7606-2.729-1.7203-4.974-1.7275-2.244-.0073-3.662.9338-4.948 1.6956-.786.4615-1.547.9674-2.279 1.5151 0 0-.752.5587-1.712 1.1198-.67.3499-1.365.648-2.079.8916-.711-.2491-1.404-.5515-2.072-.9049-.964-.5674-1.719-1.1309-1.719-1.1309-.736-.5529-1.502-1.0636-2.293-1.5298-1.29-.7606-2.714-1.7203-4.958-1.7275-2.245-.0072-3.687.9338-4.961 1.6956-.787.462-1.549.9678-2.282 1.5151 0 0-.752.5587-1.709 1.1198-.668.3488-1.359.6468-2.07.8917-.08-.0412-.382-.1431-.773-.2925 1.229 1.9258 2.569 3.7743 4.015 5.5353.629-.3132 1.188-.6455 1.725-.959.785-.4607 1.545-.9654 2.276-1.5119 0 0 .752-.5618 1.713-1.123.67-.3506 1.366-.6487 2.081-.8916.711.2497 1.404.5522 2.072.905.591.3481 1.163.7266 1.717 1.1339.735.5508 1.5 1.0605 2.289 1.5267 1.29.7606 2.717 1.7235 4.962 1.7307 2.244.0072 3.686-.9338 4.963-1.6988.786-.4612 1.547-.9659 2.28-1.5119.55-.4038 1.121-.7786 1.709-1.123.666-.3485 1.357-.6465 2.066-.8917.717.2475 1.415.5501 2.087.9051.965.5673 1.72 1.1339 1.72 1.1339.734.5513 1.497 1.0609 2.286 1.5267 1.291.7606 2.717 1.7235 4.965 1.7307 2.247.0072 3.686-.9338 4.96-1.6988.784-.4584 1.541-.9632 2.267-1.512 0 0 .752-.5618 1.712-1.1229.67-.3505 1.365-.6486 2.079-.8917.711.2497 1.404.5522 2.072.9051.964.5673 1.719 1.1339 1.719 1.1339.736.5508 1.5 1.0604 2.29 1.5267 1.29.7606 2.729 1.7235 4.974 1.7307 2.244.0072 3.662-.9339 4.948-1.6988.786-.4612 1.547-.9659 2.279-1.512 0 0 .752-.5618 1.712-1.1229.667-.3485 1.357-.6466 2.067-.8917.717.2479 1.416.5504 2.09.9051.589.3485 1.161.727 1.713 1.1339.736.5508 1.5 1.0604 2.29 1.5266 1.118.6593 2.335 1.467 4.091 1.6775 2.368-2.8031 4.462-5.839 6.25-9.0641-.948.599-1.614 1.1106-1.614 1.1106s-.751.5681-1.712 1.1293z" fill="#b1f4b4"/><path d="m244.407 69.6928c-.784.4594-1.544.9598-2.277 1.4994 0 0-.752.5586-1.712 1.1229-.673.3506-1.369.6538-2.082.9074-.706-.2608-1.395-.5684-2.063-.9207-.964-.5705-1.716-1.134-1.716-1.134-.738-.5438-1.502-1.0491-2.289-1.514-1.291-.7607-2.73-1.7361-4.974-1.7433-2.245-.0072-3.665.959-4.951 1.7114-1.286.7523-2.283 1.4993-2.283 1.4993s-.745.5587-1.706 1.123c-.669.3484-1.359.6515-2.066.9074-.716-.2586-1.415-.5663-2.091-.9208-.964-.5705-1.713-1.134-1.713-1.134-.738-.5438-1.502-1.0491-2.289-1.514-1.294-.7607-2.718-1.7361-4.965-1.7433-2.248-.0072-3.687.959-4.963 1.7114-.781.4574-1.537.9579-2.265 1.4994 0 0-.748.5586-1.709 1.1229-.673.3506-1.368.6538-2.082.9074-.709-.2604-1.401-.568-2.072-.9208-.964-.5704-1.719-1.1339-1.719-1.1339-.738-.5439-1.502-1.0492-2.289-1.5141-1.291-.7606-2.73-1.7361-4.974-1.7433-2.245-.0072-3.662.9591-4.948 1.7114-.784.4598-1.545.9602-2.28 1.4994 0 0-.751.5586-1.712 1.1229-.672.3492-1.367.6524-2.079.9074-.709-.2598-1.401-.5674-2.072-.9207-.964-.5705-1.719-1.134-1.719-1.134-.739-.5443-1.504-1.0496-2.292-1.5141-1.291-.7606-2.714-1.736-4.959-1.7432-2.244-.0073-3.686.9589-4.96 1.7113s-2.283 1.4994-2.283 1.4994-.751.5586-1.709 1.1229c-.669.3486-1.361.6518-2.069.9075-.715-.2589-1.413-.5665-2.088-.9209-.964-.5704-1.713-1.1339-1.713-1.1339-.732-.5457-1.492-1.0511-2.277-1.514-.859-.5593-1.774-1.022-2.728-1.3799.506 2.7316 1.208 5.4225 2.1 8.0508.413.2913 1.036.7125 1.753 1.1341 1.291.7606 2.73 1.7235 4.971 1.7307 2.242.0072 3.665-.9339 4.954-1.6988.784-.4594 1.544-.9598 2.277-1.4994.55-.4102 1.122-.7893 1.712-1.1355.672-.3498 1.367-.6489 2.082-.8948.71.2527 1.403.5562 2.072.9081.592.3496 1.165.7323 1.716 1.1466.738.5438 1.502 1.0492 2.289 1.5141 1.291.7606 2.718 1.7234 4.962 1.7306 2.245.0072 3.687-.9337 4.963-1.6987.785-.4598 1.546-.9603 2.28-1.4994.549-.4107 1.119-.7898 1.709-1.1355.667-.3477 1.358-.6467 2.067-.8949.716.2505 1.413.5541 2.087.9082.593.3501 1.167.7328 1.719 1.1466.737.5443 1.5 1.0496 2.286 1.514 1.291.7607 2.718 1.7235 4.965 1.7307 2.248.0073 3.687-.9337 4.96-1.6987.783-.457 1.54-.9576 2.268-1.4994.55-.4103 1.121-.7894 1.712-1.1356.671-.3496 1.365-.6486 2.079-.8948.71.2528 1.402.5562 2.072.9082.593.35 1.167.7328 1.719 1.1466.738.5438 1.502 1.0491 2.289 1.514 1.291.7607 2.73 1.7235 4.974 1.7307 2.245.0072 3.662-.9338 4.948-1.6988.785-.4598 1.546-.9602 2.28-1.4993.55-.4103 1.121-.7894 1.712-1.1356.667-.3476 1.358-.6467 2.066-.8948.717.2509 1.416.5544 2.091.9082.591.35 1.163.7327 1.713 1.1465.738.5439 1.502 1.0492 2.289 1.5141 1.291.7606 2.718 1.7235 4.959 1.7307s3.687-.9338 4.966-1.6988c.785-.4589 1.546-.9593 2.28-1.4993.549-.4108 1.119-.7898 1.709-1.1356.438-.2471.895-.4565 1.366-.626.592-2.0382 1.071-4.1098 1.435-6.2049-.25-.0277-.502-.0422-.753-.0434-2.251.0053-3.671.9464-4.96 1.7113z" fill="#b1f4b4"/><path d="m251.332 58.3737-111.623-.3591.178 56.5834 111.622.359z" fill="#b1f4b4"/><path d="m226.708 76.4003-20.456 8.8135s-10.293-3.7305-11.09-6.8819l-2.422-1.7131.921-.5518-.924-.2394 2.544-1.5678c.793-3.1495 11.048-6.8107 11.048-6.8107l20.511 8.9453" fill="#20aad7"/><path d="m206.333 67.4368 8.85-3.4136s-3.871 2.8244-3.714 5.9549l-5.304-2.2235" fill="#20aad7"/><path d="m206.547 85.4033 8.872 3.4706s-3.889-2.8494-3.752-5.9789l-5.29 2.1894" fill="#20aad7"/><path d="m233.979 69.1236-2.939 4.0914-4.196 3.1669 4.216 3.1909 2.964 4.1135-1.322-6.9388z" fill="#20aad7"/><path d="m197.963 76.1088c.57.0019 1.031-.4708 1.029-1.0557-.001-.585-.465-1.0606-1.036-1.0625-.571-.0018-1.032.4709-1.03 1.0558s.466 1.0606 1.037 1.0624z" fill="#08274c"/><path d="m187.15 95.0966-20.455 8.8134s-10.294-3.73-11.091-6.8818l-2.422-1.7131.921-.5518-.923-.2393 2.544-1.5679c.792-3.1495 11.062-6.8107 11.062-6.8107l20.512 8.9453" fill="#20aad7"/><path d="m166.786 86.1331 8.85-3.4136s-3.871 2.8244-3.714 5.9549l-5.304-2.2235" fill="#20aad7"/><path d="m167 104.101 8.872 3.47s-3.889-2.849-3.752-5.979l-5.29 2.19" fill="#20aad7"/><path d="m194.433 87.817-2.939 4.0977-4.196 3.1637 4.216 3.1909 2.965 4.1137-1.322-6.939z" fill="#20aad7"/><path d="m158.417 94.809c.571.0019 1.032-.4708 1.03-1.0558-.002-.5849-.466-1.0605-1.036-1.0624-.571-.0018-1.032.4709-1.03 1.0558s.466 1.0606 1.036 1.0624z" fill="#08274c"/><path d="m56.5829 245.693c30.8237.099 55.7311-25.437 55.6321-57.037-.1-31.6-25.1678-57.297-55.9915-57.396-30.8238-.1-55.730931 25.437-55.63168 57.037.099252 31.6 25.16728 57.297 55.99108 57.396z" fill="#b1f4b4"/><path clip-rule="evenodd" d="m110.968 200.731c-5.456 25.606-27.6897 44.699-54.3501 44.613s-49.01487-19.322-54.63157-44.963l17.96597.057c4.2568-1.051 16.169-4.353 16.1564-8.371-.0137-4.361 17.3288-5.557 21.0943-5.765l-.0002-.038s.1254.006.357.019c.2329-.012.3589-.017.3589-.017l.0001.038c3.7668.233 21.1172 1.54 21.1309 5.901.0126 4.018 11.945 7.397 16.2089 8.476z" fill="#ff6190" fill-rule="evenodd"/><path d="m35.4042 217.465c1.5412.005 2.7866-1.272 2.7816-2.852-.0049-1.58-1.2583-2.865-2.7995-2.87s-2.7866 1.272-2.7816 2.852 1.2584 2.865 2.7995 2.87z" fill="#fff"/><path d="m60.7343 229.749c1.5412.005 2.7866-1.272 2.7816-2.852s-1.2584-2.865-2.7996-2.869c-1.5411-.005-2.7865 1.271-2.7815 2.851.0049 1.58 1.2583 2.865 2.7995 2.87z" fill="#fff"/><path d="m70.7797 210.929c1.5412.005 2.7866-1.272 2.7816-2.852-.0049-1.58-1.2583-2.865-2.7995-2.87s-2.7866 1.272-2.7816 2.852c.0049 1.58 1.2583 2.865 2.7995 2.87z" fill="#fff"/><path d="m88.3154 221.513c1.5412.005 2.7865-1.272 2.7816-2.852-.005-1.58-1.2584-2.865-2.7996-2.87s-2.7865 1.272-2.7816 2.852c.005 1.58 1.2584 2.865 2.7996 2.87z" fill="#fff"/><path d="m58.1055 161.876-3.3487-.011.0785 24.991 3.3487.011z" fill="#08274c"/><path d="m55.67 163.674c1.3595-4.828-3.7478-10.616-11.4075-12.929s-14.9713-.274-16.3307 4.553c-1.3595 4.828 3.7478 10.616 11.4076 12.929 7.6597 2.312 14.9711.274 16.3306-4.553z" fill="#08274c"/><path d="m43.8976 170.197c-1.6602-.006-3.3127-.254-4.9075-.737-3.1005-.927-5.8926-2.72-8.0624-5.179s-3.6311-5.485-4.2194-8.739l-.1167-.636.4264-.469c2.1852-2.416 4.9882-4.154 8.0939-5.02 3.1058-.866 6.3911-.825 9.4866.118 3.1007.927 5.8931 2.722 8.0633 5.181s3.6322 5.486 4.2216 8.74l.1167.636-.4264.469c-1.6162 1.784-3.5759 3.206-5.7569 4.175-2.181.97-4.5364 1.467-6.9192 1.461zm-14.6183-14.478c.5941 2.659 1.8726 5.111 3.7021 7.099s4.1429 3.439 6.6987 4.203c2.5517.777 5.2559.84 7.8306.182s4.9257-2.013 6.8079-3.924c-.5958-2.66-1.8757-5.111-3.7062-7.099s-4.1445-3.439-6.7008-4.203c-2.5512-.778-5.2549-.841-7.8291-.182-2.5743.658-4.9247 2.013-6.8063 3.924z" fill="#08274c"/><path d="m72.6183 168.351c7.6453-2.264 12.7164-8.019 11.3266-12.856-1.3898-4.836-8.7143-6.922-16.3596-4.658s-12.7164 8.019-11.3266 12.855c1.3898 4.837 8.7143 6.922 16.3596 4.659z" fill="#08274c"/><path d="m68.0819 170.275c-2.3825-.01-4.7407-.523-6.9273-1.507-2.1866-.985-4.1547-2.419-5.7814-4.214l-.4293-.472.1127-.636c.5687-3.249 2.0112-6.266 4.1655-8.712 2.1542-2.445 4.9347-4.221 8.0291-5.13 3.0902-.923 6.3757-.942 9.4874-.057 3.1117.886 5.9262 2.643 8.1273 5.073l.4294.471-.1127.636c-.5685 3.25-2.0114 6.267-4.1663 8.712s-4.9363 4.22-8.0314 5.127c-1.5916.474-3.2426.713-4.903.709zm-10.4585-6.986c1.8938 1.923 4.2529 3.293 6.8312 3.968s5.2816.629 7.8281-.132c2.5511-.747 4.8556-2.184 6.673-4.16 1.8175-1.976 3.0815-4.419 3.6601-7.075-1.8943-1.923-4.2539-3.293-6.8328-3.968-2.5788-.675-5.2826-.629-7.8296.132-2.5507.748-4.8547 2.185-6.6716 4.161-1.817 1.976-3.0804 4.419-3.6584 7.074z" fill="#08274c"/><path d="m196.111 246.142c30.823.099 55.731-25.437 55.631-57.037-.099-31.6-25.167-57.297-55.991-57.396-30.823-.099-55.731 25.437-55.631 57.037.099 31.6 25.167 57.297 55.991 57.396z" fill="#08274c"/><path d="m223.491 153.019h-.059c-.13-3.669-12.855-6.676-28.525-6.726-15.671-.05-28.38 2.874-28.487 6.542h-.028l.036 11.405h.028c.139 3.669 12.861 6.673 28.528 6.723 15.668.05 28.368-2.871 28.483-6.539h.059z" fill="#ff6190"/><path d="m194.934 157.568c12.826.041 23.217-1.979 23.209-4.512-.008-2.534-10.412-4.621-23.238-4.662s-23.217 1.979-23.209 4.512 10.412 4.621 23.238 4.662z" fill="#08274c"/><path d="m223.757 221.816-.043-13.459c-1.04 3.465-13.359 6.165-28.416 6.117-15.745-.051-28.517-3.086-28.528-6.767l-.236-.001.046 14.524h.049c.102 3.691 12.886 6.716 28.634 6.767 15.813.051 28.606-2.912 28.595-6.618-.001-.192-.035-.383-.101-.563z" fill="#ff6190"/><path d="m223.572 202.457-.059-18.802c.052-.16.079-.329.079-.498-.003-.164-.03-.326-.082-.481l-.019-5.998h-.018l-.024-7.502c-1.037 3.459-13.313 6.15-28.345 6.101-15.705-.05-28.445-3.076-28.457-6.766l-.235-.001.025 7.981.082 26.145.127.001c-.003.046-.003.093 0 .14.012 3.693 12.787 6.716 28.547 6.767 15.761.05 28.498-2.9 28.486-6.584-.009-.172-.045-.342-.107-.503z" fill="#ff6190"/><path d="m190.777 192.428-7.891-.025c.037 2.244.64 4.445 1.749 6.387 1.109 1.943 2.686 3.562 4.58 4.701l4.009-6.948c-.715-.418-1.314-1.015-1.742-1.735-.427-.72-.669-1.539-.702-2.38zm7.144 4.181 4.053 6.974c1.905-1.116 3.492-2.722 4.605-4.661s1.714-4.144 1.744-6.399l-7.894-.026c-.036.848-.286 1.67-.723 2.388-.438.717-1.049 1.305-1.775 1.708zm-2.333-9.296c.937.002 1.854.284 2.638.813l3.761-7.099c-1.95-1.176-4.168-1.799-6.424-1.803-2.252-.011-4.461.596-6.4 1.756l3.814 7.116c.776-.511 1.68-.781 2.605-.776z" fill="#fff"/><path d="m198.081 192.27c.002.674-.257 1.32-.721 1.796-.464.475-1.094.741-1.752.739s-1.289-.272-1.756-.751c-.467-.478-.73-1.126-.732-1.8-.002-.675.257-1.321.721-1.796.463-.475 1.093-.741 1.751-.739s1.29.272 1.757.75c.466.479.73 1.126.732 1.801z" fill="#fff"/></svg>