<svg fill="none" height="424" viewBox="0 0 391 424" width="391" xmlns="http://www.w3.org/2000/svg"><path d="m277.166 303.304c.001.542-.101 1.08-.3 1.581-.198.501-.49.957-.859 1.34-.368.384-.806.689-1.287.897-.482.207-.998.314-1.52.314-.521 0-1.038-.107-1.519-.314-.482-.208-.92-.513-1.288-.897-.368-.383-.66-.839-.859-1.34s-.301-1.039-.3-1.581c0-1.093.418-2.142 1.162-2.916.744-.773 1.752-1.207 2.804-1.207s2.061.434 2.804 1.207c.744.774 1.162 1.823 1.162 2.916z" fill="#ff6190"/><path d="m308.49 20.7974-277.4475-6.5059-8.8891 379.0775 277.4476 6.506z" fill="#fff"/><path d="m325.083 36.7339-275.1494-36.224134-49.493181 375.938234 275.149581 36.224z" fill="#b1f4b4"/><path d="m274.471 271.731-220.116-28.979-.5439 4.131 220.1169 28.979z" fill="#20aad7"/><path d="m272.115 289.633-220.1165-28.979-.5438 4.131 220.1163 28.979z" fill="#20aad7"/><path d="m269.667 308.223-220.1162-28.979-.5439 4.131 220.1161 28.979z" fill="#20aad7"/><path d="m267.31 326.125-220.1162-28.979-.5438 4.132 220.116 28.979z" fill="#20aad7"/><path d="m264.954 344.027-220.1166-28.979-.5439 4.131 220.1165 28.979z" fill="#20aad7"/><path d="m119.136 125.379c23.603 3.108 45.258-13.529 48.369-37.1585 3.111-23.6297-13.501-45.3042-37.103-48.4116-23.603-3.1073-45.2584 13.5293-48.3692 37.1589-3.1109 23.6292 13.5008 45.3042 37.1032 48.4112z" fill="#08274c"/><g fill="#ff6190"><path d="m100.788 97.4958c6.587.8671 12.63-3.7754 13.498-10.3694.868-6.5939-3.767-12.6423-10.354-13.5095-6.5863-.8671-12.6294 3.7754-13.4975 10.3694s3.7675 12.6424 10.3535 13.5095z"/><path d="m111.834 82.0687c5.266.6933 10.098-3.0185 10.792-8.2906.694-5.272-3.013-10.1078-8.279-10.8011s-10.097 3.0185-10.791 8.2905c-.694 5.2721 3.012 10.1079 8.278 10.8012z"/><path d="m124.177 79.1623c6.586.8671 12.63-3.7754 13.498-10.3694.868-6.5939-3.768-12.6423-10.354-13.5095-6.587-.8671-12.63 3.7754-13.498 10.3694s3.768 12.6424 10.354 13.5095z"/><path d="m106.341 58.7187c2.69.3542 5.159-1.5423 5.514-4.2361.354-2.6938-1.539-5.1647-4.23-5.5189-2.691-.3543-5.16 1.5423-5.514 4.2361-.355 2.6938 1.539 5.1647 4.23 5.5189z"/><path d="m156.427 94.0214c1.304.1716 2.5-.7471 2.671-2.052.172-1.3048-.745-2.5018-2.049-2.6734-1.303-.1715-2.499.7472-2.671 2.052-.171 1.3049.746 2.5018 2.049 2.6734z"/><path d="m135.93 101.109c7.367.97 14.128-4.2232 15.099-11.5996.971-7.3763-4.215-14.1424-11.583-15.1124s-14.128 4.2234-15.099 11.5997c-.971 7.3764 4.215 14.1423 11.583 15.1123z"/><path d="m141.434 85.5525c6.587.8671 12.63-3.7755 13.498-10.3694.868-6.594-3.767-12.6424-10.354-13.5095-6.586-.8671-12.629 3.7754-13.498 10.3694-.868 6.5939 3.768 12.6423 10.354 13.5095z"/><path d="m154.409 77.3774c4.113.5416 7.887-2.3578 8.43-6.4759.542-4.1181-2.353-7.8955-6.467-8.4371-4.113-.5415-7.887 2.3579-8.429 6.476-.543 4.1181 2.353 7.8955 6.466 8.437z"/></g><path clip-rule="evenodd" d="m140.657 121.986 1.742-13.225c.207-1.576-.901-3.021-2.474-3.228l-8.5-1.119c-1.573-.207-3.017.902-3.224 2.477l-2.407 18.277c5.203-.168 10.221-1.278 14.863-3.182z" fill="#fff" fill-rule="evenodd"/><path clip-rule="evenodd" d="m104.42 120.199 2.146-16.294c.207-1.575-.901-3.02-2.474-3.227l-8.4998-1.1193c-1.5735-.2072-3.0172.9023-3.2246 2.4773l-1.0132 7.697c3.5957 4.265 8.0196 7.843 13.0656 10.466z" fill="#fff" fill-rule="evenodd"/><path d="m226.151 138.739c23.405 3.081 44.879-13.416 47.964-36.848 3.085-23.4313-13.388-44.9243-36.793-48.0056s-44.879 13.4159-47.964 36.8477c-3.085 23.4319 13.388 44.9249 36.793 48.0059z" fill="#08274c"/><path d="m251.803 131.043c-1.719-.226-2.902.337-3.964.78s-1.9.896-1.9.896c-.46.254-.935.481-1.421.681-.546.194-1.105.35-1.673.466-.524-.258-1.029-.554-1.51-.885-.418-.319-.817-.661-1.197-1.025-.51-.48-1.044-.932-1.601-1.357-.914-.696-1.908-1.554-3.629-1.78-1.721-.227-2.918.335-3.973.779-.644.265-1.274.565-1.886.898-.461.253-.937.48-1.423.68-.55.196-1.113.351-1.685.464-.519-.259-1.019-.554-1.496-.882-.419-.32-.82-.663-1.202-1.027-.51-.479-1.044-.932-1.601-1.357-.912-.695-1.917-1.554-3.636-1.78-1.718-.227-2.899.337-3.961.78-.647.267-1.281.566-1.898.896-.462.253-.938.48-1.426.681-.549.194-1.111.349-1.682.464-.519-.258-1.019-.553-1.496-.883-.419-.32-.82-.662-1.201-1.026-.511-.479-1.047-.932-1.604-1.357-.912-.696-1.905-1.553-3.624-1.779-.614-.084-1.237-.066-1.844.054 3.205 3.744 7.032 6.905 11.313 9.343.63-.176 1.245-.4 1.841-.669.648-.267 1.282-.567 1.898-.899 0 0 .63-.344 1.423-.671.547-.195 1.106-.353 1.674-.475.522.264 1.025.562 1.506.894.682.521 1.203 1.017 1.203 1.017.509.48 1.042.934 1.598 1.359.912.695 1.907 1.565 3.628 1.791 1.721.227 2.921-.354 3.972-.791.646-.265 1.276-.566 1.889-.9 0 0 .632-.343 1.425-.671.55-.196 1.112-.354 1.683-.473.518.264 1.017.562 1.495.892.681.521 1.203 1.017 1.203 1.017.509.48 1.044.934 1.6 1.359.779.582 1.624 1.312 2.918 1.65 4.767-1.131 9.304-3.075 13.413-5.747-.798-.601-1.729-1.22-3.149-1.407z" fill="#20aad7"/><path d="m189.173 92.2457c.192.1119.377.2348.555.368.681.5213 1.203 1.0168 1.203 1.0168.502.4874 1.033.9448 1.589 1.3698.912.6956 1.918 1.5545 3.634 1.7805 1.717.2259 2.919-.3352 3.973-.779.648-.2666 1.279-.5711 1.89-.9117 0 0 .632-.3437 1.425-.6709.548-.1945 1.11-.3489 1.68-.4623.52.2576 1.021.5519 1.499.8807.681.5213 1.202 1.0168 1.202 1.0168.507.4866 1.041.9443 1.599 1.3711.912.6956 1.918 1.5545 3.636 1.7808 1.719.2262 2.9-.3377 3.962-.7806.649-.2677 1.284-.5717 1.899-.9105 0 0 .632-.3436 1.425-.6709.546-.1938 1.105-.3485 1.673-.4631.523.2576 1.027.5523 1.508.8819.681.5213 1.2 1.0165 1.2 1.0165.507.4866 1.041.9443 1.599 1.3711.912.6953 1.906 1.5533 3.625 1.7793 1.718.226 2.918-.335 3.975-.779.647-.266 1.278-.5708 1.89-.9115 0 0 .627-.3443 1.42-.6715.55-.1958 1.114-.3499 1.687-.4613.519.258 1.019.5522 1.496.8803.681.5213 1.212 1.018 1.212 1.018.502.488 1.032.945 1.588 1.37.912.695 1.92 1.554 3.638 1.781 1.719.226 2.9-.338 3.962-.781.65-.268 1.285-.572 1.901-.91 0 0 .628-.344 1.42-.672.55-.195 1.113-.35 1.685-.461.52.257 1.021.552 1.499.881.681.521 1.2 1.016 1.2 1.016.506.487 1.039.944 1.597 1.371.914.696 1.91 1.553 3.629 1.78 1.718.226 2.918-.336 3.973-.779.649-.268 1.284-.572 1.899-.911 0 0 .63-.344 1.42-.671.547-.194 1.107-.349 1.676-.463.094.065.658.326 1.185.657.031-.236.06-.453.089-.679.187-1.414.302-2.819.347-4.2153-.339-.1107-.687-.1895-1.04-.2352-1.718-.2262-2.899.3377-3.961.7806-.65.2671-1.285.5702-1.902.9079-.461.247-.935.47-1.419.669-.551.195-1.115.35-1.688.464-.518-.26-1.018-.554-1.496-.883-.681-.5189-1.202-1.0144-1.202-1.0144-.507-.4856-1.04-.9424-1.598-1.3685-.911-.6955-1.908-1.5532-3.626-1.7795-1.719-.2263-2.919.3352-3.973.779-.65.2675-1.284.5707-1.9.9082 0 0-.629.3439-1.422.6688-.546.1946-1.105.3502-1.673.4655-.523-.2582-1.027-.5537-1.507-.8843-.682-.5189-1.203-1.0144-1.203-1.0144-.502-.4864-1.033-.9429-1.588-1.3672-.914-.6959-1.917-1.5545-3.636-1.7808-1.719-.2262-2.918.3352-3.973.779-.647.2664-1.278.5701-1.89.9094 0 0-.63.3439-1.422.6688-.551.195-1.115.35-1.687.4637-.519-.2588-1.019-.5538-1.496-.8827-.416-.3176-.816-.6559-1.198-1.0138-.509-.4851-1.044-.9422-1.602-1.3691-.912-.6956-1.918-1.5545-3.636-1.7808-1.719-.2262-2.9.3377-3.964.7803-.649.2672-1.282.5705-1.897.9084 0 0-.632.3436-1.424.6685-.546.1947-1.106.3503-1.674.4656-.523-.2578-1.027-.5533-1.507-.8843-.681-.5189-1.201-1.0141-1.201-1.0141-.507-.4853-1.041-.9423-1.599-1.3688-.912-.6955-1.908-1.5532-3.627-1.7795-1.718-.2263-2.918.3352-3.973.779-.647.2664-1.278.5701-1.89.9094 0 0-.639.3427-1.431.6676-.547.1943-1.107.3497-1.676.4652-.523-.2582-1.027-.5537-1.507-.8843-.682-.5189-1.203-1.0144-1.203-1.0144-.501-.4866-1.031-.943-1.586-1.3669-.681-.5189-1.413-1.1284-2.456-1.4984-.312 1.3521-.565 2.7287-.75 4.1335-.025.191-.036.3814-.061.57z" fill="#20aad7"/><path d="m262.982 123.759c-.549.197-1.112.353-1.685.464-.517-.257-1.014-.552-1.488-.881-.682-.519-1.201-1.014-1.201-1.014-.508-.486-1.042-.943-1.599-1.369-.912-.696-1.918-1.555-3.637-1.781-1.718-.226-2.901.337-3.963.78-.65.268-1.285.571-1.902.908-.462.247-.935.47-1.42.669-.544.196-1.103.352-1.67.466-.525-.256-1.03-.551-1.511-.882-.416-.318-.816-.656-1.198-1.014-.507-.485-1.041-.942-1.599-1.369-.915-.696-1.908-1.553-3.629-1.78-1.721-.226-2.919.336-3.973.779-.647.267-1.277.57-1.888.91 0 0-.63.344-1.422.669-.549.196-1.112.35-1.685.462-.519-.257-1.019-.551-1.496-.881-.681-.519-1.203-1.014-1.203-1.014-.507-.486-1.041-.942-1.599-1.369-.912-.696-1.918-1.554-3.636-1.781-1.719-.226-2.9.338-3.962.781-.649.267-1.283.571-1.899.908 0 0-.632.344-1.424.669-.549.195-1.111.35-1.683.461-.519-.256-1.019-.55-1.496-.88-.681-.519-1.203-1.014-1.203-1.014-.508-.486-1.042-.943-1.601-1.369-.912-.696-1.906-1.553-3.625-1.78-1.718-.226-2.918.336-3.97.78-.65.267-1.285.571-1.902.908 0 0-.632.343-1.422.668-.547.195-1.106.35-1.675.463-.058-.039-.278-.144-.563-.294.747 1.56 1.588 3.073 2.517 4.532.514-.172.975-.366 1.418-.547.649-.267 1.282-.57 1.897-.906 0 0 .632-.346 1.425-.671.549-.196 1.112-.35 1.684-.462.52.257 1.02.551 1.496.881.417.318.818.657 1.201 1.016.508.484 1.042.94 1.599 1.367.912.695 1.908 1.555 3.627 1.781 1.718.227 2.918-.335 3.973-.781.649-.267 1.283-.57 1.899-.906.463-.247.937-.471 1.423-.671.545-.195 1.104-.35 1.672-.463.525.256 1.029.55 1.508.882.682.519 1.203 1.017 1.203 1.017.507.484 1.04.94 1.597 1.366.912.695 1.908 1.555 3.629 1.782s2.918-.335 3.971-.782c.647-.265 1.278-.568 1.89-.907 0 0 .632-.346 1.424-.671.549-.196 1.111-.35 1.683-.462.519.257 1.019.551 1.496.881.681.519 1.202 1.017 1.202 1.017.508.484 1.043.94 1.6 1.366.912.696 1.917 1.557 3.636 1.783s2.899-.338 3.962-.783c.648-.267 1.282-.569 1.898-.906 0 0 .633-.346 1.425-.67.546-.195 1.105-.35 1.673-.464.525.256 1.03.551 1.51.883.416.318.816.657 1.198 1.016.508.484 1.042.94 1.6 1.366.79.603 1.641 1.326 2.965 1.657 2.097-1.863 4.007-3.926 5.702-6.16-.787.354-1.348.671-1.348.671s-.633.351-1.426.675z" fill="#20aad7"/><path d="m267.864 110.327c-.646.266-1.279.566-1.895.897 0 0-.632.343-1.425.671-.55.196-1.114.354-1.686.473-.514-.264-1.011-.562-1.487-.891-.681-.521-1.201-1.017-1.201-1.017-.51-.479-1.044-.932-1.601-1.357-.912-.695-1.915-1.566-3.634-1.792s-2.904.356-3.965.792-1.9.896-1.9.896-.628.344-1.42.671c-.548.195-1.107.354-1.675.475-.522-.263-1.026-.562-1.509-.894-.681-.521-1.197-1.016-1.197-1.016-.511-.479-1.045-.932-1.601-1.357-.915-.696-1.907-1.565-3.628-1.791-1.721-.227-2.921.354-3.975.79-.644.266-1.273.565-1.885.898 0 0-.63.344-1.423.672-.551.195-1.114.354-1.686.473-.517-.265-1.016-.563-1.495-.892-.681-.521-1.202-1.017-1.202-1.017-.511-.479-1.045-.932-1.601-1.357-.912-.695-1.916-1.566-3.635-1.792-1.718-.227-2.902.356-3.963.792-.647.266-1.28.566-1.897.896 0 0-.632.344-1.425.671-.55.195-1.113.353-1.684.474-.517-.264-1.017-.562-1.495-.892-.681-.522-1.202-1.017-1.202-1.017-.511-.48-1.046-.933-1.603-1.357-.912-.696-1.905-1.565-3.623-1.791-1.719-.227-2.921.354-3.973.791-1.051.437-1.9.896-1.9.896s-.632.343-1.422.671c-.548.195-1.108.353-1.677.475-.521-.264-1.025-.563-1.506-.894-.681-.521-1.198-1.016-1.198-1.016-.506-.48-1.037-.933-1.592-1.356-.601-.5026-1.255-.9385-1.951-1.3.113 2.092.379 4.172.798 6.224.287.259.721.635 1.228 1.021.912.695 1.917 1.556 3.634 1.782 1.716.226 2.902-.337 3.966-.782.647-.266 1.279-.565 1.895-.897.463-.252.939-.479 1.426-.68.55-.195 1.113-.35 1.685-.464.519.259 1.019.554 1.496.883.418.319.819.662 1.199 1.026.511.479 1.045.932 1.601 1.357.912.695 1.908 1.555 3.627 1.782 1.718.226 2.918-.335 3.973-.782.647-.266 1.281-.565 1.898-.896.461-.253.937-.48 1.423-.681.546-.194 1.106-.349 1.674-.465.523.258 1.027.553 1.507.884.419.32.82.663 1.201 1.026.51.48 1.043.932 1.599 1.357.912.696 1.908 1.556 3.629 1.782 1.721.227 2.918-.335 3.971-.781.645-.265 1.275-.565 1.888-.898.463-.253.939-.48 1.426-.68.549-.196 1.111-.351 1.683-.465.518.259 1.018.554 1.495.883.419.32.82.663 1.202 1.026.51.479 1.045.932 1.601 1.357.912.696 1.917 1.557 3.636 1.783 1.718.227 2.899-.337 3.961-.783.648-.266 1.281-.565 1.898-.896.463-.252.939-.48 1.426-.68.546-.194 1.105-.35 1.673-.466.524.258 1.029.554 1.51.885.417.32.817.662 1.197 1.025.51.48 1.045.932 1.601 1.357.912.696 1.907 1.556 3.624 1.782 1.716.226 2.918-.335 3.976-.781.647-.266 1.281-.565 1.897-.896.462-.253.937-.481 1.424-.681.36-.142.731-.253 1.11-.334.659-1.465 1.235-2.966 1.725-4.496-.189-.046-.381-.081-.573-.107-1.725-.217-2.908.346-3.973.791z" fill="#20aad7"/><path d="m274.311 102.548-85.472-11.2531-5.571 42.3111 85.473 11.253z" fill="#20aad7"/><path d="m253.63 113.599-16.559 4.575s-7.509-3.801-7.801-6.235l-1.683-1.519.761-.322-.683-.27 2.107-.921c.925-2.276 9.15-4.004 9.15-4.004l14.81 8.705" fill="#fff"/><path d="m238.925 104.894 7.124-1.681s-3.25 1.73-3.445 4.086l-3.839-2.184" fill="#fff"/><path d="m237.277 118.345 6.446 3.467s-2.692-2.513-2.27-4.838l-4.274 1.115" fill="#fff"/><path d="m259.934 108.875-2.664 2.769-3.534 1.954 2.908 2.8 1.856 3.366-.313-5.316z" fill="#fff"/><path d="m231.639 110.552c.437.058.837-.25.895-.687.058-.438-.25-.839-.687-.897-.437-.057-.838.251-.895.688-.058.438.25.839.687.896z" fill="#08274c"/><path d="m221.441 123.681-16.559 4.575s-7.509-3.801-7.801-6.235l-1.683-1.519.761-.322-.683-.27 2.107-.921c.925-2.276 9.161-4.002 9.161-4.002l14.811 8.704" fill="#fff"/><path d="m206.745 114.978 7.124-1.681s-3.25 1.73-3.445 4.086l-3.84-2.184" fill="#fff"/><path d="m205.097 128.428 6.446 3.468s-2.692-2.513-2.271-4.839l-4.273 1.116" fill="#fff"/><path d="m227.754 118.957-2.664 2.774-3.534 1.952 2.908 2.799 1.856 3.367-.313-5.317z" fill="#fff"/><path d="m199.459 120.638c.437.058.838-.25.895-.688.058-.437-.25-.838-.686-.896-.437-.057-.838.251-.896.688-.057.438.25.839.687.896z" fill="#08274c"/><path d="m106.232 223.398c23.602 3.107 45.258-13.529 48.369-37.159s-13.501-45.304-37.104-48.412c-23.6021-3.107-45.2576 13.53-48.3685 37.159-3.1109 23.63 13.5008 45.305 37.1035 48.412z" fill="#20aad7"/><path clip-rule="evenodd" d="m152.429 195.142c-6.762 18.603-25.72 30.686-46.134 27.999-20.4147-2.688-35.5994-19.266-37.316-38.985l13.7566 1.811c3.3674-.367 12.825-1.663 13.2205-4.668.4293-3.26 13.8349-2.448 16.7409-2.233l.003-.028s.096.016.273.049c.179.014.276.023.276.023l-.004.028c2.862.545 16.021 3.229 15.592 6.49-.396 3.005 8.404 6.704 11.562 7.931z" fill="#ff6190" fill-rule="evenodd"/><path d="m92.8548 200.214c1.1801.156 2.2629-.676 2.4184-1.858.1556-1.181-.675-2.265-1.8551-2.42-1.1802-.156-2.2629.676-2.4185 1.858-.1555 1.181.6751 2.265 1.8552 2.42z" fill="#fff"/><path d="m111.02 211.889c1.18.155 2.263-.677 2.418-1.858.156-1.181-.675-2.265-1.855-2.421-1.18-.155-2.263.677-2.418 1.858-.156 1.182.675 2.266 1.855 2.421z" fill="#fff"/><path d="m120.614 198.81c1.18.155 2.262-.677 2.418-1.858.156-1.182-.675-2.265-1.855-2.421-1.18-.155-2.263.677-2.419 1.858-.155 1.182.675 2.265 1.856 2.421z" fill="#fff"/><path d="m132.979 208.447c1.18.155 2.263-.677 2.419-1.858.155-1.182-.675-2.266-1.855-2.421-1.181-.155-2.263.676-2.419 1.858-.155 1.181.675 2.265 1.855 2.421z" fill="#fff"/><path d="m115.851 160.897-2.564-.337-2.46 18.687 2.564.338z" fill="#08274c"/><path d="m113.804 162.001c1.529-3.474-1.8-8.303-7.435-10.786-5.634-2.482-11.4407-1.678-12.969 1.797-1.5283 3.474 1.8005 8.303 7.435 10.786 5.634 2.482 11.441 1.678 12.969-1.797z" fill="#08274c"/><path d="m104.128 165.719c-1.271-.168-2.512-.516-3.685-1.034-2.2816-.998-4.2397-2.613-5.6539-4.664-1.4142-2.052-2.2284-4.458-2.3509-6.947l-.0253-.487.374-.309c1.9175-1.59 4.2401-2.614 6.7066-2.956s4.9795.012 7.2555 1.022c2.282.998 4.24 2.614 5.654 4.666 1.415 2.052 2.229 4.458 2.353 6.948l.025.487-.374.309c-1.418 1.174-3.063 2.044-4.831 2.554-1.769.511-3.623.65-5.448.411zm-9.7382-12.26c.1869 2.046.9191 4.004 2.1201 5.67s2.8268 2.979 4.7081 3.801c1.876.832 3.941 1.145 5.98.907 2.038-.239 3.976-1.02 5.611-2.263-.188-2.047-.922-4.005-2.123-5.671-1.202-1.666-2.828-2.979-4.71-3.801-1.876-.833-3.94-1.146-5.9788-.907-2.0384.239-3.9756 1.02-5.6098 2.263z" fill="#08274c"/><path d="m126.316 167.165c6.085-.939 10.55-4.742 9.973-8.494s-5.977-6.032-12.062-5.092-10.55 4.743-9.973 8.494c.577 3.752 5.977 6.032 12.062 5.092z" fill="#08274c"/><path d="m122.647 168.157c-1.824-.242-3.579-.857-5.155-1.808-1.575-.951-2.938-2.217-4.003-3.719l-.282-.395.151-.464c.763-2.373 2.172-4.486 4.069-6.102s4.206-2.67 6.668-3.044c2.461-.386 4.98-.078 7.274.891 2.294.968 4.273 2.558 5.714 4.591l.282.395-.151.464c-.763 2.373-2.173 4.486-4.07 6.102-1.897 1.615-4.207 2.668-6.67 3.041-1.267.198-2.555.214-3.827.048zm-7.307-6.251c1.257 1.624 2.926 2.88 4.833 3.638s3.982.99 6.01.672c2.029-.307 3.94-1.155 5.531-2.453 1.592-1.298 2.806-3 3.517-4.928-1.257-1.624-2.926-2.88-4.834-3.638-1.907-.758-3.983-.99-6.011-.672-2.029.308-3.939 1.155-5.53 2.453-1.591 1.299-2.806 3-3.516 4.928z" fill="#08274c"/><path d="m213.072 237.463c23.603 3.108 45.258-13.529 48.369-37.159 3.111-23.629-13.501-45.304-37.103-48.411-23.603-3.107-45.258 13.529-48.369 37.159-3.111 23.629 13.501 45.304 37.103 48.411z" fill="#08274c"/><path d="m243.439 170.551-.046-.006c.271-2.755-9.173-6.255-21.173-7.834-11.999-1.58-22.03-.645-22.482 2.087l-.021-.003-1.123 8.528.022.003c-.264 2.756 9.179 6.253 21.176 7.832 11.997 1.58 22.02.645 22.479-2.085l.045.006z" fill="#ff6190"/><path d="m221.104 171.141c9.821 1.293 17.985.806 18.234-1.088.249-1.895-7.51-4.478-17.331-5.771-9.822-1.293-17.986-.806-18.235 1.088-.249 1.895 7.51 4.479 17.332 5.771z" fill="#08274c"/><path d="m236.704 222.001 1.325-10.064c-1.147 2.487-10.856 3.293-22.386 1.775-12.056-1.587-21.533-5.112-21.171-7.865l-.18-.024-1.43 10.861.038.005c-.295 2.768 9.193 6.288 21.252 7.876 12.109 1.594 22.207.638 22.572-2.133.019-.144.012-.29-.02-.431z" fill="#ff6190"/><path d="m238.515 207.512 1.851-14.059c.056-.115.093-.239.111-.365.014-.123.009-.247-.015-.367l.591-4.486-.015-.002.739-5.609c-1.143 2.483-10.819 3.286-22.329 1.771-12.026-1.584-21.48-5.099-21.117-7.859l-.181-.023-.785 5.968-2.574 19.551.097.013c-.007.034-.012.069-.014.104-.363 2.762 9.118 6.279 21.186 7.867 12.068 1.589 22.123.637 22.486-2.117.01-.13 0-.26-.031-.387z" fill="#ff6190"/><path d="m214.403 196.789-6.042-.796c-.198 1.682.042 3.385.695 4.947.654 1.561 1.699 2.926 3.035 3.964l3.772-4.799c-.506-.382-.904-.888-1.16-1.468-.255-.581-.357-1.217-.298-1.848zm5.051 3.828 2.402 5.612c1.572-.648 2.949-1.692 3.997-3.032 1.048-1.339 1.731-2.928 1.982-4.611l-6.045-.796c-.113.63-.387 1.22-.795 1.713-.407.493-.935.873-1.532 1.103zm-.849-7.178c.717.093 1.391.394 1.939.867l3.596-4.936c-1.375-1.071-3.011-1.755-4.739-1.98-1.724-.23-3.477.006-5.08.683l2.204 5.694c.646-.306 1.366-.418 2.074-.324z" fill="#fff"/><path d="m220.015 197.39c-.067.504-.33.962-.734 1.271-.403.31-.912.447-1.416.38-.504-.066-.96-.33-1.27-.733-.309-.404-.445-.914-.379-1.418s.33-.962.733-1.272c.403-.309.913-.446 1.417-.38.503.067.96.331 1.269.734.31.404.446.914.38 1.418z" fill="#fff"/><path d="m270.327 349.344c27.252 3.359 52.175-16.888 55.668-45.223 3.492-28.336-15.768-54.029-43.019-57.388-27.252-3.359-52.175 16.888-55.668 45.223-3.492 28.335 15.768 54.028 43.019 57.388z" fill="#08274c"/><path d="m273.03 333.412c18.339 2.26 35.112-11.365 37.463-30.434 2.35-19.069-10.611-36.359-28.951-38.62-18.339-2.261-35.112 11.365-37.462 30.434-2.351 19.068 10.611 36.359 28.95 38.62z" fill="#fff"/><path d="m318.944 344.768-9.034 7.34c-2.863 2.325-3.39 6.603-1.178 9.554l40.422 53.924c2.212 2.951 6.326 3.458 9.189 1.132l9.034-7.339c2.863-2.326 3.39-6.603 1.178-9.554l-40.422-53.924c-2.212-2.951-6.326-3.458-9.189-1.133z" fill="#08274c"/><path d="m310.943 333.722-9.38 7.621 8.49 11.326 9.381-7.621z" fill="#20aad7"/><path d="m269.237 299.353-12.495-1.541c-.399 3.611.108 7.258 1.47 10.588 1.363 3.33 3.535 6.229 6.306 8.415l7.743-10.387c-1.042-.811-1.866-1.886-2.395-3.123-.529-1.238-.745-2.598-.629-3.952zm10.46 8.078 4.989 11.965c3.244-1.431 6.084-3.709 8.242-6.61 2.157-2.901 3.558-6.327 4.066-9.943l-12.504-1.541c-.231 1.354-.793 2.626-1.632 3.695s-1.926 1.898-3.158 2.409zm-1.81-15.373c1.483.18 2.879.809 4.014 1.807l7.398-10.679c-2.849-2.263-6.236-3.686-9.81-4.121-3.562-.443-7.182.106-10.489 1.592l4.6 12.151c1.335-.67 2.822-.93 4.287-.75z" fill="#ff6190"/><circle cx="276.5" cy="299.5" fill="#ff6190" r="3.5"/></svg>