<svg fill="none" viewBox="0 0 464 824" xmlns="http://www.w3.org/2000/svg"><path d="m236.197 40.6336-228.30948 36.8563c-1.09045.176-1.83173 1.2027-1.6557 2.2931l48.61818 301.169c.176 1.091 1.2027 1.832 2.2932 1.656l228.3088-36.856c1.091-.176 1.832-1.203 1.656-2.294l-48.618-301.1687c-.176-1.0904-1.203-1.8317-2.293-1.6557z" fill="#b1f4b4"/><path d="m120.883 113.107c.004-.003.001-.009-.003-.008l-14.13 2.28c-1.1.178-1.85 1.224-1.574 2.304.952 3.726 2.711 7.206 5.163 10.19 2.46 2.995 5.547 5.402 9.032 7.06.993.472 2.15-.041 2.553-1.064l4.517-11.477c.41-1.041-.13-2.201-1.078-2.796-.855-.536-1.628-1.202-2.288-1.975-1.103-1.292-1.858-2.844-2.194-4.509 0-.002.001-.004.002-.005zm15.929 5.931c.001.004.003.008.005.011l9.21 11.044c.7.84 1.952.966 2.747.216 2.827-2.666 5.036-5.929 6.461-9.561 1.416-3.613 2.015-7.485 1.764-11.34-.072-1.116-1.116-1.878-2.22-1.7l-12.267 1.98c-1.054.17-1.766 1.143-1.85 2.207-.084 1.068-.339 2.119-.759 3.113-.668 1.578-1.729 2.958-3.082 4.008-.007.005-.01.014-.009.022zm-7.658-17.787c1.201-.194 2.421-.166 3.601.077 1.145.236 2.396-.28 2.784-1.3831l4.077-11.573c.359-1.0192-.154-2.1473-1.188-2.4623-3.838-1.1698-7.902-1.4486-11.88-.8036-3.962.6356-7.717 2.1691-10.981 4.4728-.885.6244-1.017 1.8604-.353 2.7153l7.538 9.6909c.714.918 2.054 1.016 3.065.44 1.028-.586 2.157-.986 3.337-1.174z" fill="#ff6190"/><path d="m135.781 110.303c.11.669.086 1.352-.069 2.011s-.439 1.28-.835 1.83c-.396.549-.896 1.015-1.472 1.371-.576.355-1.217.594-1.885.702-.669.108-1.352.083-2.011-.074-.659-.156-1.28-.441-1.829-.837-.548-.397-1.013-.898-1.368-1.475s-.592-1.218-.699-1.886-.082-1.35.073-2.008c.156-.657.44-1.278.836-1.826.396-.549.896-1.013 1.472-1.368.575-.355 1.215-.594 1.883-.701.668-.108 1.35-.083 2.008.072.658.156 1.279.44 1.827.836s1.013.896 1.368 1.471.594 1.215.701 1.882z" fill="#ff6190"/><path d="m114.476 317.653c-.005 0-.007-.005-.004-.008 7.375-7.175 13.626-15.42 18.542-24.459 5.083-8.998 8.949-18.631 11.495-28.647 1.072-4.509.585-10.443-4.415-12.396-4.498-1.759-8.838 2.275-10.76 6.021-1.828 3.838-2.069 8.242-.671 12.257 1.543 4.213 4.668 7.659 8.711 9.606 10.354 5.282 22.012.862 30.307-6.164.591-.501.596-1.401.031-1.93-.598-.558-1.555-.447-1.985.249-4.931 7.986-7.376 17.271-7.005 26.671.175 4.44.713 9.548 3.181 13.373.491.847 1.144 1.589 1.923 2.183s1.668 1.028 2.615 1.277c1.145.2 2.321.118 3.428-.238 1.106-.357 2.108-.978 2.92-1.81 2.039-2.056 3.763-4.402 5.116-6.961 1.345-2.303 2.529-4.694 3.545-7.158.263-.636-.167-1.338-.851-1.41-.741-.078-1.314.627-.938 1.271 1.578 2.703 4.941 3.876 8.096 3.191 4.034-.867 6.556-4.387 8.567-7.727.215-.357-.088-.8-.499-.733-.42.067-.559.594-.217.846 3.762 2.781 8.334 4.276 13.033 4.243 1.931-.015 2.273-3.026.323-3.008-4.543.06-8.958-1.5-12.453-4.401-.326-.232-.731-.326-1.127-.262-.395.064-.75.28-.986.603-1.55 2.694-3.308 5.933-6.332 7.158-1.917.8-5.343.484-6.04-1.868-.06-.322-.223-.615-.464-.837s-.547-.361-.873-.396c-.325-.034-.654.037-.936.203-.282.167-.503.42-.63.722-1.639 4.352-3.858 8.463-6.599 12.221-1.175 1.591-2.927 3.663-5.145 3.418-1.575-.186-2.674-1.614-3.35-2.885-1.79-3.423-2.17-7.738-2.313-11.539-.145-4.232.327-8.462 1.399-12.558 1.221-4.708 3.22-9.178 5.915-13.226.913-1.375-.873-3.254-2.194-2.059-6.611 5.996-15.671 10.639-24.796 8.032-3.843-.993-7.186-3.365-9.392-6.665-.921-1.526-1.526-3.222-1.779-4.987-.254-1.765-.15-3.563.305-5.287.429-1.65 1.232-3.179 2.347-4.469 1.246-1.408 3.282-2.923 5.259-2.27.837.359 1.564.934 2.106 1.665.542.732.88 1.594.98 2.499.388 2.402-.342 4.851-1.007 7.127-2.531 8.682-5.977 17.071-10.28 25.025-4.747 8.916-10.819 17.061-18.01 24.156-1.394 1.347.505 3.688 1.911 2.349.003-.003.001-.009-.004-.008z" fill="#08274c"/><g stroke="#08274c" stroke-miterlimit="10"><path d="m63.1055 163.695 147.0865-23.744"/><path d="m64.6885 173.502 147.0865-23.744"/><path d="m66.27 183.298 147.086-23.745"/><path d="m67.853 193.104 147.086-23.744"/><path d="m69.436 202.911 147.086-23.744"/><path d="m71.0176 212.708 147.0864-23.744"/><path d="m72.6006 222.515 147.0864-23.745"/><path d="m74.1821 232.312 147.0859-23.745"/><path d="m75.7651 242.117 147.0869-23.744"/></g><path d="m262.236 251.171 2.163 24.645-24.492 23.424-25.613-.16-.16-25.586 23.43-24.506z" fill="#fff"/><path d="m214.815 298.56 20.166-20.141" stroke="#08274c" stroke-miterlimit="10" stroke-width="2"/><path d="m414.393 66.6705-176.828 176.7815c-9.275 9.273-9.485 24.098-.468 33.113l.015.014c9.017 9.015 23.846 8.806 33.121-.467l176.828-176.7819c9.275-9.2728 9.484-24.0978.467-33.1126l-.014-.0142c-9.017-9.0148-23.846-8.8056-33.121.4672z" fill="#20aad7"/><path d="m308.418 749.914-3.308 37.701 37.465 35.831 39.18-.245.245-39.139-35.841-37.486z" fill="#fff"/><path clip-rule="evenodd" d="m349.57 792.137 30.848 30.809 1.08-1.081-30.848-30.809z" fill="#08274c" fill-rule="evenodd"/><path d="m75.6627 467.684 270.4943 270.423c14.189 14.185 14.509 36.863.715 50.653l-.021.022c-13.794 13.789-36.478 13.47-50.666-.715l-270.4948-270.424c-14.1884-14.184-14.5084-36.862-.7148-50.652l.0217-.022c13.7935-13.79 36.4773-13.47 50.6656.715z" fill="#20aad7"/></svg>