<svg width="25" height="24" viewBox="0 0 25 24" fill="none" xmlns="http://www.w3.org/2000/svg">
<path fill-rule="evenodd" clip-rule="evenodd" d="M9.06025 20.5605C8.89603 20.7252 8.69576 20.8495 8.47525 20.9235L3.97525 22.4235C3.71087 22.512 3.42705 22.5251 3.15565 22.4613C2.88425 22.3975 2.63601 22.2593 2.43878 22.0622C2.24156 21.8651 2.10316 21.617 2.03913 21.3456C1.97509 21.0743 1.98795 20.7905 2.07625 20.526L3.57625 16.026C3.65005 15.805 3.77434 15.6042 3.93925 15.4395L15.6288 3.75C16.1913 3.18759 16.9543 2.87164 17.7498 2.87164C18.5452 2.87164 19.3082 3.18759 19.8708 3.75L20.7498 4.629C21.3122 5.19159 21.6281 5.95451 21.6281 6.75C21.6281 7.5455 21.3122 8.30842 20.7498 8.871L9.06025 20.5605ZM4.99975 16.5L16.6893 4.8105C16.9705 4.5293 17.352 4.37132 17.7498 4.37132C18.1475 4.37132 18.529 4.5293 18.8103 4.8105L19.6893 5.6895C19.9705 5.97079 20.1284 6.35226 20.1284 6.75C20.1284 7.14775 19.9705 7.52921 19.6893 7.8105L7.99975 19.5L3.49975 21L4.99975 16.5Z" fill="#08274C"/>
<path fill-rule="evenodd" clip-rule="evenodd" d="M15.281 3.83998C15.2113 3.77013 15.1285 3.71472 15.0374 3.67691C14.9463 3.6391 14.8486 3.61964 14.75 3.61964C14.6513 3.61964 14.5536 3.6391 14.4625 3.67691C14.3714 3.71472 14.2886 3.77013 14.219 3.83998L9.28097 8.78248C9.14014 8.92331 8.94913 9.00243 8.74997 9.00243C8.55081 9.00243 8.3598 8.92331 8.21897 8.78248C8.07814 8.64165 7.99902 8.45064 7.99902 8.25148C7.99902 8.05232 8.07814 7.86131 8.21897 7.72048L13.16 2.78098C13.3689 2.5719 13.617 2.40603 13.8901 2.29287C14.1632 2.17971 14.4559 2.12146 14.7515 2.12146C15.0471 2.12146 15.3398 2.17971 15.6128 2.29287C15.8859 2.40603 16.134 2.5719 16.343 2.78098L16.7825 3.21898C16.9233 3.35961 17.0025 3.55043 17.0026 3.74945C17.0028 3.94847 16.9239 4.1394 16.7832 4.28023C16.6426 4.42106 16.4518 4.50026 16.2528 4.5004C16.0537 4.50054 15.8628 4.42161 15.722 4.28098L15.2825 3.84148L15.281 3.83998Z" fill="#08274C"/>
<path d="M20.4395 1.81046C20.7208 1.52925 21.1023 1.37128 21.5 1.37128C21.8977 1.37128 22.2792 1.52925 22.5605 1.81046L22.6055 1.85546C22.8789 2.12881 23.0362 2.49716 23.0446 2.88367C23.053 3.27018 22.9118 3.64501 22.6505 3.92996L20.75 5.99996L18.5 3.74996L20.4395 1.81046Z" fill="#08274C"/>
</svg>
