<svg fill="none" height="64" viewBox="0 0 64 64" width="64" xmlns="http://www.w3.org/2000/svg"><g stroke="#08274c"><circle cx="32" cy="32" fill="#b1f4b4" r="23.5"/><path d="m8 31.9365h48"/><path d="m32.0635 8v48"/><path d="m32 44.1541c-6.5654 0-12.4844-1.3558-16.7437-3.5242-4.2867-2.1823-6.7563-5.1067-6.7563-8.1939 0-3.0873 2.4696-6.0117 6.7563-8.194 4.2593-2.1684 10.1783-3.5242 16.7437-3.5242s12.4844 1.3558 16.7437 3.5242c4.2867 2.1823 6.7563 5.1067 6.7563 8.194 0 3.0872-2.4696 6.0116-6.7563 8.1939-4.2593 2.1684-10.1783 3.5242-16.7437 3.5242z"/><path d="m19.8454 32c0-6.5654 1.3558-12.4844 3.5242-16.7437 2.1823-4.2867 5.1067-6.7563 8.194-6.7563 3.0872 0 6.0116 2.4696 8.1939 6.7563 2.1684 4.2593 3.5242 10.1783 3.5242 16.7437s-1.3558 12.4844-3.5242 16.7437c-2.1823 4.2867-5.1067 6.7563-8.1939 6.7563-3.0873 0-6.0117-2.4696-8.194-6.7563-2.1684-4.2593-3.5242-10.1783-3.5242-16.7437z"/></g></svg>