<svg
	width="88"
	height="95"
	viewBox="0 0 88 95"
	fill="none"
	xmlns="http://www.w3.org/2000/svg"
>
	<path
		d="M41.451 87.6141L73.9611 88.1469C80.6431 88.2585 85.9178 80.8959 85.2605 72.3688C84.4691 62.0299 83.3906 46.8165 82.245 27.1339C79.9283 -12.5696 42.8966 3.01383 42.8966 3.01383H42.7976C42.7976 3.01383 5.76264 -12.5696 3.44915 27.1339C2.30039 46.8165 1.21545 62.0299 0.430464 72.3688C-0.20774 80.8959 5.05107 88.2585 11.7299 88.1469L44.2432 87.6141"
		fill="#08274C"
	/>
	<path
		d="M79.2547 52.9126C79.2547 52.9126 87.5705 40.0886 86.0196 53.053C84.4688 66.0173 76.5742 65.1752 76.5742 65.1752"
		fill="white"
	/>
	<path
		d="M76.8588 66.1389C76.7299 66.1405 76.601 66.1351 76.4727 66.1229L76.6769 64.2089C76.9577 64.2344 83.6588 64.7193 85.0692 52.9289C85.5256 49.1231 85.0054 48.3129 84.9129 48.2012C84.1566 48.2012 81.8272 50.7022 80.0626 53.4233L78.467 52.3802C79.82 50.2971 83.2216 45.5407 85.5894 46.3956C87.0509 46.9252 87.4817 49.0115 86.9871 53.1554C86.3074 58.8273 84.38 62.7255 81.2432 64.7672C79.9428 65.6336 78.4213 66.1097 76.8588 66.1389Z"
		fill="#08274C"
	/>
	<path
		d="M8.71766 52.9126C8.71766 52.9126 0.398711 40.0886 1.94954 53.053C3.50037 66.0173 11.3949 65.1752 11.3949 65.1752"
		fill="white"
	/>
	<path
		d="M11.2064 66.1322C9.63959 66.1322 2.48214 65.4496 0.995132 53.1647C0.500525 49.0176 0.931313 46.9345 2.3928 46.4049C4.76053 45.55 8.16533 50.3064 9.51513 52.3895L7.91962 53.4326C6.15499 50.7115 3.82556 48.2105 3.07249 48.2105C2.97995 48.3222 2.463 49.1324 2.91613 52.9382C4.32656 64.7254 11.0341 64.2437 11.3149 64.2182L11.5127 66.1322C11.5127 66.1322 11.3787 66.1322 11.2064 66.1322Z"
		fill="#08274C"
	/>
	<path
		d="M43.624 93.4998C74.5034 94.0038 79.5644 50.9923 79.5644 50.9923L71.1401 35.4216C49.3997 40.6374 21.9984 28.0303 21.9984 28.0303C21.9984 28.0303 23.3801 42.3472 8.69189 50.9987C8.69189 50.9987 13.7529 94.0102 44.6323 93.5062"
		fill="white"
	/>
	<path
		d="M44.1508 94.4601H44.1125C31.3485 94.4601 21.0095 86.9986 14.2254 72.8507C11 65.9629 8.81689 58.6339 7.7477 51.1041L7.67432 50.4852L8.21358 50.1662C14.0659 46.7178 18.0068 41.971 19.9214 36.0566C21.3574 31.6224 21.0574 28.1516 21.0542 28.1197L20.9011 26.4673L22.4072 27.1595C22.6785 27.284 49.7574 39.5625 70.9107 34.4967L71.6255 34.3244L80.5603 50.8106L80.5252 51.1105C79.4578 58.6406 77.2746 65.9699 74.0475 72.8571C67.2538 86.9986 56.9276 94.4601 44.1508 94.4601ZM43.6403 92.5461H44.6231C50.8428 92.5174 56.859 90.3273 61.6408 86.351C65.7891 82.9409 69.3758 78.1366 72.2892 72.0659C76.8332 62.6106 78.3266 52.9703 78.5755 51.1775L70.6458 36.5192C59.4007 39.0042 46.8281 36.8701 38.1772 34.6051C33.0057 33.2523 27.9328 31.5469 22.9944 29.501C22.9222 31.9001 22.5107 34.2769 21.7722 36.5606C20.3937 40.8672 17.1899 46.906 9.73251 51.4869C10.0867 53.8922 11.6471 63.0636 15.9741 72.0628C18.8875 78.1239 22.4711 82.9377 26.6226 86.3478C31.4044 90.3241 37.4205 92.5143 43.6403 92.5429V92.5461Z"
		fill="#08274C"
	/>
	<path
		d="M59.7507 61.8185L59.4541 61.936L60.1595 63.7154L60.4562 63.5979L59.7507 61.8185Z"
		fill="#08274C"
	/>
	<path
		d="M61.0089 63.3285L60.3037 61.5516L60.894 61.3155L61.5993 63.0956L61.0089 63.3285ZM62.1896 62.8595L61.4812 61.0827L62.0715 60.8466L62.7799 62.6267L62.1896 62.8595ZM63.3671 62.3938L62.6619 60.6138L63.2522 60.3809L63.9575 62.1577L63.3671 62.3938ZM64.5478 61.9249L63.8425 60.1448L64.4329 59.9119L65.1381 61.692L64.5478 61.9249ZM65.7284 61.4559L65.02 59.6759L65.6104 59.443L66.3188 61.223L65.7284 61.4559ZM66.9059 60.987L66.2007 59.2101L66.791 58.9741L67.4963 60.7541L66.9059 60.987ZM68.0866 60.5212L67.3814 58.7412L67.9685 58.5083L68.6769 60.2852L68.0866 60.5212ZM69.2673 60.0523L68.5589 58.2722L69.1492 58.0394L69.8544 59.8194L69.2673 60.0523ZM70.4448 59.5834L69.7396 57.8065L70.3299 57.5704L71.0351 59.3505L70.4448 59.5834ZM71.6254 59.1144L70.917 57.3376L71.517 57.0983L72.2254 58.8784L71.6254 59.1144ZM72.8061 58.6487L72.0977 56.8686L72.6881 56.6357L73.3933 58.4126L72.8061 58.6487ZM73.9836 58.1797L73.2784 56.3997L73.8687 56.1668L74.5739 57.9469L73.9836 58.1797ZM75.1643 57.7108L74.4559 55.9339L75.0462 55.6979L75.7546 57.4779L75.1643 57.7108ZM76.345 57.2419L75.6366 55.465L76.2269 55.2289L76.9321 57.009L76.345 57.2419ZM77.5224 56.7761L76.8172 54.9961L77.4076 54.7632L78.1128 56.54L77.5224 56.7761Z"
		fill="#08274C"
	/>
	<path
		d="M78.296 54.4124L77.9995 54.5303L78.7068 56.3089L79.0033 56.1911L78.296 54.4124Z"
		fill="#08274C"
	/>
	<path
		d="M39.3862 68.5506C39.3862 68.5506 45.7969 65.1372 50.7717 68.8345L39.3862 68.5506Z"
		fill="white"
	/>
	<path
		d="M50.2008 69.603C45.7844 66.3204 39.8938 69.3669 39.8364 69.3956L38.9365 67.7081C40.2356 67.0644 41.621 66.612 43.0497 66.3651C46.2408 65.8068 49.0935 66.3938 51.3464 68.0686L50.2008 69.603Z"
		fill="#08274C"
	/>
	<path
		d="M58.9538 50.4406C59.9724 50.4406 60.7982 49.6151 60.7982 48.5968C60.7982 47.5785 59.9724 46.7529 58.9538 46.7529C57.9351 46.7529 57.1094 47.5785 57.1094 48.5968C57.1094 49.6151 57.9351 50.4406 58.9538 50.4406Z"
		fill="white"
	/>
	<path
		d="M58.9538 51.3971C58.2107 51.3963 57.4983 51.101 56.9725 50.5761C56.4468 50.0511 56.1506 49.3391 56.1489 48.5963C56.1506 47.8534 56.4468 47.1415 56.9725 46.6165C57.4983 46.0915 58.2107 45.7963 58.9538 45.7954C59.6966 45.7963 60.4088 46.0916 60.934 46.6167C61.4592 47.1418 61.7547 47.8537 61.7556 48.5963C61.7547 49.3388 61.4592 50.0508 60.934 50.5759C60.4088 51.1009 59.6966 51.3963 58.9538 51.3971ZM58.9538 47.7094C58.7183 47.7094 58.4923 47.8028 58.3254 47.969C58.1585 48.1352 58.0644 48.3608 58.0635 48.5963C58.0644 48.8318 58.1585 49.0573 58.3254 49.2236C58.4923 49.3898 58.7183 49.4831 58.9538 49.4831C59.1889 49.4823 59.414 49.3886 59.5802 49.2224C59.7464 49.0563 59.8401 48.8312 59.841 48.5963C59.8401 48.3613 59.7464 48.1362 59.5802 47.9701C59.414 47.804 59.1889 47.7103 58.9538 47.7094Z"
		fill="#08274C"
	/>
	<path
		d="M28.6613 50.4406C29.6799 50.4406 30.5057 49.6151 30.5057 48.5968C30.5057 47.5785 29.6799 46.7529 28.6613 46.7529C27.6426 46.7529 26.8169 47.5785 26.8169 48.5968C26.8169 49.6151 27.6426 50.4406 28.6613 50.4406Z"
		fill="white"
	/>
	<path
		d="M28.6616 51.3971C27.9188 51.3963 27.2066 51.1009 26.6814 50.5759C26.1561 50.0508 25.8607 49.3388 25.8599 48.5963C25.8607 47.8537 26.1561 47.1418 26.6814 46.6167C27.2066 46.0916 27.9188 45.7963 28.6616 45.7954C29.4044 45.7963 30.1165 46.0916 30.6418 46.6167C31.167 47.1418 31.4624 47.8537 31.4633 48.5963C31.4624 49.3388 31.167 50.0508 30.6418 50.5759C30.1165 51.1009 29.4044 51.3963 28.6616 51.3971ZM28.6616 47.7094C28.4265 47.7103 28.2014 47.804 28.0352 47.9701C27.869 48.1362 27.7753 48.3613 27.7745 48.5963C27.7753 48.8312 27.869 49.0563 28.0352 49.2224C28.2014 49.3886 28.4265 49.4823 28.6616 49.4831C28.8968 49.4831 29.1225 49.3897 29.2889 49.2234C29.4552 49.057 29.5487 48.8315 29.5487 48.5963C29.5487 48.3611 29.4552 48.1355 29.2889 47.9692C29.1225 47.8029 28.8968 47.7094 28.6616 47.7094Z"
		fill="#08274C"
	/>
	<path
		d="M28.5419 61.4914L27.8335 63.2715L28.1303 63.3895L28.8386 61.6095L28.5419 61.4914Z"
		fill="#08274C"
	/>
	<path
		d="M26.9061 63.6124L26.3158 63.3764L27.0242 61.5995L27.6145 61.8324L26.9061 63.6124ZM25.7286 63.1435L25.1383 62.9106L25.8435 61.1306L26.4338 61.3634L25.7286 63.1435ZM24.548 62.6746L23.9576 62.4417L24.6628 60.6616L25.2532 60.8977L24.548 62.6746ZM23.3673 62.2088L22.7769 61.9728L23.4853 60.1959L24.0757 60.4288L23.3673 62.2088ZM22.1898 61.7399L21.5994 61.5038L22.3047 59.7269L22.895 59.9598L22.1898 61.7399ZM21.0091 61.2709L20.4188 61.0381L21.124 59.258L21.7143 59.4909L21.0091 61.2709ZM19.8284 60.802L19.2381 60.5691L19.9465 58.7891L20.5368 59.0251L19.8284 60.802ZM18.6509 60.3363L18.0606 60.1002L18.7658 58.3233L19.3562 58.5562L18.6509 60.3363ZM17.4703 59.8673L16.8799 59.6312L17.5883 57.8544L18.1755 58.0873L17.4703 59.8673ZM16.2896 59.3984L15.7024 59.1655L16.4077 57.3855L16.998 57.6183L16.2896 59.3984ZM15.1121 58.9294L14.5218 58.6966L15.227 56.9165L15.8173 57.1526L15.1121 58.9294ZM13.9314 58.4637L13.3411 58.2276L14.0495 56.4508L14.6366 56.6836L13.9314 58.4637ZM12.7507 57.9947L12.1636 57.7587L12.8688 55.9818L13.4592 56.2147L12.7507 57.9947ZM11.5733 57.5258L10.9829 57.2929L11.6881 55.5129L12.2785 55.7458L11.5733 57.5258ZM10.3926 57.0569L9.80225 56.824L10.5106 55.0439L11.101 55.28L10.3926 57.0569Z"
		fill="#08274C"
	/>
	<path
		d="M9.93742 54.1194L9.229 55.8994L9.52577 56.0174L10.2342 54.2374L9.93742 54.1194Z"
		fill="#08274C"
	/>
	<path
		d="M16.1688 74.0055L14.6211 72.8794C21.0957 63.976 32.0568 58.6646 43.9497 58.6646C55.5491 58.6646 66.3635 63.7686 72.8795 72.3435L71.3574 73.5015C65.1987 65.4083 54.9556 60.5786 43.9497 60.5786C32.6695 60.585 22.2828 65.6029 16.1688 74.0055Z"
		fill="#08274C"
	/>
</svg>
