<svg fill="none" height="40" viewBox="0 0 40 40" width="40" xmlns="http://www.w3.org/2000/svg"><path d="m39.5 20c0 10.7704-8.7296 19.5-19.5 19.5-10.77037 0-19.5-8.7296-19.5-19.5 0-10.77037 8.72963-19.5 19.5-19.5 10.7704 0 19.5 8.72963 19.5 19.5z" fill="#fff" stroke="#08274c"/><path clip-rule="evenodd" d="m16.871 26.0361c0-1.8711-.0106-3.7421.0106-5.6132 0-.3171-.0846-.4122-.4017-.4016-.5814.0211-1.1628 0-1.7548.0105-.2325.0106-.3277-.0634-.3171-.3065.0106-1.1628.0106-2.3362 0-3.499 0-.222.0634-.296.296-.296.592.0106 1.1945-.0211 1.7865.0106.3488.0212.4122-.1057.4122-.4228-.0211-.888-.0211-1.7759 0-2.6639.0212-1.0888.3172-2.1036.962-2.98094.8139-1.1205 1.9767-1.6279 3.3192-1.69133 1.3742-.06342 2.759-.03171 4.1438-.04228.1903 0 .2537.06342.2537.2537-.0106 1.18393-.0106 2.36785 0 3.54125 0 .2114-.0634.2748-.2749.2748-.6659-.0106-1.3319-.0106-1.9873 0-.8879 0-1.4165.4546-1.4693 1.3319-.0423.6977-.0106 1.406-.0317 2.1142-.0106.2537.148.2326.3065.2326 1.0042 0 2.019.0105 3.0233-.0106.296 0 .3911.0634.3594.37-.1269 1.1733-.2326 2.3467-.3383 3.5306-.0211.2643-.148.3171-.3805.3171-.7928-.0105-1.5962-.0105-2.389 0-.5709 0-.518-.0845-.518.4969 0 3.6681-.0106 7.3256.0106 10.9936 0 .3912-.0952.4863-.4757.4757-1.3637-.0211-2.7379-.0211-4.1015 0-.3806.0106-.444-.1268-.444-.4651 0-1.871 0-3.7104 0-5.5602z" fill="#08274c" fill-rule="evenodd"/></svg>