<svg fill="none" height="40" viewBox="0 0 40 40" width="40" xmlns="http://www.w3.org/2000/svg"><path d="m39.5 20c0 10.7704-8.7296 19.5-19.5 19.5-10.77037 0-19.5-8.7296-19.5-19.5 0-10.77037 8.72963-19.5 19.5-19.5 10.7704 0 19.5 8.72963 19.5 19.5z" fill="#fff" stroke="#08274c"/><rect fill="#08274c" height="28" rx="5" width="28" x="6" y="6"/><g fill="#fff"><path d="m17.2476 16.0293c-.2928 0-.5288.2361-.5288.5288v4.0607c0 .2928.236.5289.5288.5289.2927 0 .5288-.2361.5288-.5289v-4.0607c0-.2927-.2361-.5288-.5288-.5288z"/><path d="m22.0354 16.0293c-.2927 0-.5288.2361-.5288.5288v2.427l-1.9076-2.6253c-.1322-.1889-.3778-.2644-.595-.1889-.2172.0756-.3683.2739-.3683.5006v3.9473c0 .2928.2361.5289.5289.5289.2927 0 .5288-.2361.5288-.5289v-2.3136l1.9076 2.6253c.1039.1416.2644.2172.425.2172.0566 0 .1133-.0095.1605-.0284.2172-.0755.3683-.2738.3683-.5005v-4.0607c.0094-.2927-.2266-.5288-.5194-.5288z"/><path d="m15.7646 20.0988h-1.4071v-3.5319c0-.2927-.2361-.5288-.5289-.5288-.2927 0-.5288.2361-.5288.5288v4.0607c0 .2928.2361.5289.5288.5289h1.936c.2927 0 .5288-.2361.5288-.5289 0-.2927-.2455-.5288-.5288-.5288z"/><path d="m31.0631 6h-22.13561c-1.61484 0-2.92749 1.31265-2.92749 2.92749v22.13561c0 1.6148 1.31265 2.9369 2.92749 2.9369h22.13561c1.6148 0 2.9369-1.3126 2.9369-2.9369v-22.13561c-.0094-1.61484-1.3221-2.92749-2.9369-2.92749zm-1.7849 18.1126c-1.4448 1.7943-7.7814 6.1006-9.264 6.9788-.6044.3589-1.3693-.0755-1.3693-.7838v-2.1909c-3.5414-.1417-9.87795-3.2769-9.87795-9.3774 0-6.3555 6.35545-9.44352 11.20945-9.44352 5.2506 0 11.2283 3.48462 11.2283 9.38682.0095 1.6621-.4722 3.6263-1.9265 5.43z"/><path d="m26.4266 20.005h-2.0965v-.9726h1.6338c.2927 0 .5288-.2361.5288-.5289 0-.2927-.2361-.5288-.5288-.5288h-1.6338v-.9727h2.0115c.2927 0 .5288-.2361.5288-.5288 0-.2928-.2361-.5289-.5288-.5289h-2.5403c-.2928 0-.5288.2361-.5288.5289v2.0303 2.0304c0 .2927.236.5288.5288.5288h2.6253c.2927 0 .5288-.2361.5288-.5288 0-.2928-.2361-.5289-.5288-.5289z"/></g></svg>